<svg width="36" height="55" viewBox="0 0 36 55" fill="none" xmlns="http://www.w3.org/2000/svg">
<path fill-rule="evenodd" clip-rule="evenodd" d="M18.5751 0.344647C17.7954 -0.113585 16.829 -0.114968 16.0479 0.341034L1.2395 8.98687C0.471918 9.43502 0 10.257 0 11.1458V13.4684V24.64V29.9546V33.317V43.0439C0 43.9132 0.451557 44.7201 1.19247 45.1747L16.9419 54.839L17.2026 54.999L17.4637 54.8398L33.3151 45.1747C34.0595 44.7209 34.5137 43.912 34.5137 43.0402V33.0458V29.6293V26.6447C35.3591 26.3185 35.9588 25.4981 35.9588 24.5376C35.9588 23.5772 35.3591 22.7568 34.5137 22.4305V13.7396V11.142C34.5137 10.2558 34.0444 9.43574 33.2803 8.98669L18.5751 0.344647ZM33.5137 22.2876V14.0198L18.0265 4.54629C17.5515 4.25576 16.9547 4.2522 16.4763 4.53706L1 13.7526V23.7652L15.9888 14.937C16.7718 14.4758 17.7434 14.4758 18.5264 14.937L32.1084 22.9374C32.4752 22.5723 32.9668 22.3325 33.5137 22.2876ZM31.5727 23.7825L18.0189 15.7987C17.5491 15.5219 16.9661 15.5219 16.4963 15.7986L1 24.9258V29.6689L16.4797 38.7862C16.9561 39.0668 17.5483 39.0626 18.0206 38.7752L33.5137 29.3482V26.7877C32.3544 26.6924 31.4434 25.7214 31.4434 24.5376C31.4434 24.2728 31.489 24.0186 31.5727 23.7825ZM16.5521 1.20462C17.0208 0.931019 17.6006 0.931849 18.0685 1.20679L32.7737 9.84883C33.2321 10.1183 33.5137 10.6103 33.5137 11.142V12.8476L18.5483 3.69323C17.7567 3.20901 16.762 3.20309 15.9647 3.67786L1 12.5887V11.1458C1 10.6125 1.28315 10.1193 1.7437 9.85046L16.5521 1.20462ZM18.5404 39.6295L33.5137 30.5188V32.7655L18.0265 42.2391C17.5515 42.5296 16.9547 42.5332 16.4763 42.2483L1 33.0328V30.8294L15.9722 39.6479C16.7662 40.1156 17.7532 40.1085 18.5404 39.6295ZM18.5483 43.0921L33.5137 33.9378V43.0402C33.5137 43.5633 33.2412 44.0486 32.7945 44.3209L17.7078 53.5197L17.7575 43.4062C18.0328 43.3484 18.3005 43.2437 18.5483 43.0921ZM16.7574 43.4118L16.7078 53.5221L1.71548 44.3224C1.27093 44.0496 1 43.5655 1 43.0439V34.1966L15.9647 43.1075C16.2137 43.2558 16.482 43.3572 16.7574 43.4118Z" fill="#fff"/>
</svg>
