<svg width="66" height="66" viewBox="0 0 66 66" fill="none" xmlns="http://www.w3.org/2000/svg">
<g clip-path="url(#clip0_819_75)">
<circle cx="33" cy="33" r="32.5" fill="#C00D0E" stroke="white"/>
<path fill-rule="evenodd" clip-rule="evenodd" d="M33.5849 5.85588C32.8052 5.39764 31.8387 5.39626 31.0577 5.85226L16.2493 14.4981C15.4817 14.9463 15.0098 15.7682 15.0098 16.6571V18.9796V30.1512V35.4659V38.8282V48.5552C15.0098 49.4244 15.4613 50.2313 16.2022 50.686L31.9517 60.3503L32.2123 60.5102L32.4735 60.351L48.3249 50.6859C49.0693 50.2321 49.5234 49.4232 49.5234 48.5514V38.5571V35.1405V32.1559C50.3688 31.8297 50.9686 31.0093 50.9686 30.0489C50.9686 29.0884 50.3688 28.268 49.5234 27.9418V19.2508V16.6533C49.5234 15.767 49.0542 14.947 48.2901 14.4979L33.5849 5.85588ZM48.5234 27.7988V19.5311L33.0362 10.0575C32.5613 9.76699 31.9644 9.76343 31.4861 10.0483L16.0098 19.2638V29.2765L30.9986 20.4482C31.7816 19.987 32.7532 19.987 33.5362 20.4483L47.1182 28.4486C47.485 28.0835 47.9766 27.8437 48.5234 27.7988ZM46.5825 29.2937L33.0287 21.3099C32.5589 21.0332 31.9759 21.0331 31.5061 21.3099L16.0098 30.437V35.1801L31.4894 44.2974C31.9659 44.5781 32.558 44.5738 33.0304 44.2864L48.5234 34.8594V32.2989C47.3642 32.2036 46.4531 31.2326 46.4531 30.0489C46.4531 29.784 46.4987 29.5298 46.5825 29.2937ZM31.5619 6.71585C32.0305 6.44225 32.6104 6.44308 33.0782 6.71802L47.7834 15.3601C48.2419 15.6295 48.5234 16.1215 48.5234 16.6533V18.3588L33.558 9.20446C32.7664 8.72024 31.7717 8.71432 30.9744 9.18909L16.0098 18.1V16.6571C16.0098 16.1238 16.2929 15.6306 16.7535 15.3617L31.5619 6.71585ZM33.5502 45.1407L48.5234 36.03V38.2768L33.0362 47.7503C32.5613 48.0408 31.9644 48.0444 31.4861 47.7595L16.0098 38.544V36.3407L30.9819 45.1591C31.776 45.6268 32.7629 45.6197 33.5502 45.1407ZM33.558 48.6034L48.5234 39.449V48.5514C48.5234 49.0745 48.2509 49.5598 47.8043 49.8321L32.7176 59.0309L32.7672 48.9174C33.0425 48.8597 33.3102 48.755 33.558 48.6034ZM31.7672 48.923L31.7175 59.0333L16.7252 49.8336C16.2807 49.5609 16.0098 49.0767 16.0098 48.5552V39.7079L30.9744 48.6187C31.2235 48.7671 31.4918 48.8685 31.7672 48.923Z" fill="white"/>
</g>
<defs>
<clipPath id="clip0_819_75">
<rect width="66" height="66" fill="white"/>
</clipPath>
</defs>
</svg>
