<svg width="29" height="29" viewBox="0 0 29 29" fill="none" xmlns="http://www.w3.org/2000/svg">
<path d="M10.6792 11.9038C7.19597 14.9281 1 13.9808 1 13.9808V15.0192C1 15.0192 7.94092 14.3052 11.1887 17.6154C14.4364 20.9256 13.7358 28 13.7358 28H14.7547C14.7547 28 14.1065 20.9782 17.3019 17.6154C20.6352 14.1075 28 15.0192 28 15.0192V13.9808C28 13.9808 20.8752 14.6124 17.3019 11.3846C13.5678 8.01158 14.7547 1 14.7547 1H13.7358C13.7358 1 14.4775 8.60607 10.6792 11.9038Z" fill="#FF5C5C"/>
<path d="M9.7988e-07 14.4136C-0.000929522 16.9541 0.660864 19.434 1.91875 21.62C3.17663 23.806 5.40042 25.9364 7.50005 27.0849C9.59967 28.2334 11.9637 28.8387 14.3695 28.8396H14.3757C22.2984 28.8396 28.7478 22.3725 28.7511 14.4253C28.7525 10.5735 27.2585 6.95195 24.5446 4.22739C21.8302 1.50293 18.221 0.00184686 14.3757 8.39233e-05C6.45168 8.39233e-05 0.00320604 6.46611 9.7988e-07 14.4136ZM4.53821 21.2436C4.42282 21.0694 4.25374 20.7905 4.25374 20.7905C3.05763 18.8829 2.42618 16.6783 2.42721 14.4146C2.42975 7.80884 7.78949 2.43475 14.3802 2.43475C17.5718 2.43604 20.5714 3.68384 22.8276 5.94832C25.0835 8.21266 26.3249 11.2229 26.3239 14.4244C26.3211 21.0303 20.9612 26.4052 14.3757 26.4052H14.3711C12.2267 26.4041 10.1238 25.8266 8.28963 24.7349C8.28963 24.7349 8.02119 24.5807 7.85312 24.4754C6.32084 23.5158 5.53658 22.7509 4.53821 21.2436Z" fill="#140202"/>
</svg>
