<svg width="34" height="34" viewBox="0 0 34 34" fill="none" xmlns="http://www.w3.org/2000/svg">
<path d="M1.15123e-06 16.8017C-0.00339152 25.9922 7.79588 33.6146 16.8822 33.6179H16.8895C26.1975 33.6179 33.7747 26.0793 33.7787 16.8154C33.7802 12.3254 32.025 8.10372 28.8365 4.92773C25.6475 1.75186 21.4072 0.00206266 16.8895 7.62939e-06C7.57984 7.62939e-06 0.00376666 7.53738 1.15123e-06 16.8017ZM2.85164 16.8029C2.85462 9.10259 9.15158 2.83807 16.8948 2.83807C20.6445 2.83958 24.1686 4.29412 26.8193 6.93381C29.4697 9.57332 30.9281 13.0823 30.927 16.8142C30.9237 24.5147 24.6265 30.7802 16.8895 30.7802H16.8841C9.31098 30.7762 2.84812 24.4547 2.85164 16.8029Z" fill="#16213F"/>
<path d="M17.3718 9.32753C18.6683 9.32753 19.7227 10.3819 19.7227 11.6784C19.7227 12.9737 18.6683 14.0283 17.3718 14.0283C16.0766 14.0283 15.021 12.9737 15.021 11.6784C15.021 10.3819 16.0766 9.32753 17.3718 9.32753ZM17.3718 17.3545C20.5037 17.3545 23.0496 14.8087 23.0496 11.6784C23.0496 8.54691 20.5037 6.00003 17.3718 6.00003C14.2407 6.00003 11.6941 8.54691 11.6941 11.6784C11.6941 14.8085 14.2407 17.3545 17.3718 17.3545ZM19.669 21.9864C20.8248 21.723 21.9396 21.2658 22.9661 20.6208C23.743 20.1312 23.9772 19.104 23.4876 18.327C22.9986 17.5483 21.9721 17.3142 21.1938 17.8038C18.8682 19.2667 15.8737 19.266 13.5493 17.8038C12.771 17.3142 11.7446 17.5484 11.2561 18.327C10.7665 19.1047 11 20.1312 11.7771 20.6208C12.8035 21.265 13.9182 21.723 15.0741 21.9864L11.8997 25.1607C11.2507 25.8103 11.2507 26.8633 11.9003 27.5128C12.2255 27.8373 12.6508 27.9999 13.0761 27.9999C13.5021 27.9999 13.9281 27.8374 14.2532 27.5128L17.3711 24.3935L20.4917 27.5128C21.1407 28.1624 22.1937 28.1624 22.8432 27.5128C23.4935 26.8633 23.4935 25.8095 22.8432 25.1607C22.8433 25.1607 19.669 21.9864 19.669 21.9864Z" fill="black"/>
</svg>
