<svg width="30" height="30" viewBox="0 0 30 30" fill="none" xmlns="http://www.w3.org/2000/svg">
<circle cx="15.0661" cy="14.9147" r="13.7774" stroke="#16213F" stroke-width="1.8"/>
<path fill-rule="evenodd" clip-rule="evenodd" d="M14.454 18.5574C13.8469 19.1046 13.2464 19.6421 12.6511 20.1845C12.4429 20.3741 12.2088 20.4788 11.9102 20.4639C11.7069 20.4538 11.5927 20.3702 11.5304 20.1909C11.0748 18.8802 10.6118 17.5717 10.1582 16.2603C10.114 16.1327 10.0475 16.0713 9.90885 16.0321C8.83457 15.7278 7.76242 15.417 6.69166 15.1023C6.53311 15.0557 6.37259 14.9959 6.23504 14.9113C5.99563 14.7642 5.96146 14.5304 6.18009 14.3611C6.3821 14.2046 6.62158 14.0736 6.86694 13.9837C8.22438 13.4865 9.58874 13.0054 10.9506 12.5185C14.2267 11.3475 17.5029 10.1765 20.7787 9.00488C21.4067 8.78026 21.8947 9.09177 21.8358 9.71897C21.7971 10.1324 21.6808 10.5405 21.5876 10.9487C20.8616 14.1257 20.1329 17.3022 19.405 20.4788C19.4036 20.4849 19.4032 20.4912 19.4017 20.4973C19.2237 21.224 18.6536 21.4227 18.0036 20.9797C16.8752 20.2106 15.7496 19.4381 14.6227 18.6672C14.5694 18.6308 14.5143 18.5966 14.454 18.5574ZM11.9606 19.5579C11.9782 19.4833 11.9903 19.4489 11.9939 19.4138C12.0655 18.6993 12.1404 17.9852 12.2038 17.2701C12.2179 17.1114 12.269 16.9942 12.4015 16.884C14.1115 15.4624 15.8163 14.0353 17.5223 12.6096C18.0077 12.204 18.495 11.8005 18.9756 11.3902C19.026 11.3472 19.037 11.2644 19.0663 11.2001C18.9921 11.1806 18.9089 11.1312 18.8455 11.1476C18.699 11.1854 18.5513 11.2394 18.4228 11.3142C15.8862 12.7919 13.3529 14.2744 10.8162 15.7519C10.6871 15.8271 10.6503 15.889 10.702 16.033C11.1037 17.1505 11.4937 18.2716 11.888 19.3914C11.9034 19.4353 11.9252 19.4773 11.9606 19.5579Z" fill="#16213F"/>
</svg>
