<svg width="34" height="34" viewBox="0 0 34 34" xmlns="http://www.w3.org/2000/svg">
<path d="M1.15123e-06 16.8017C-0.00339152 25.9922 7.79588 33.6146 16.8822 33.6179H16.8895C26.1975 33.6179 33.7747 26.0793 33.7787 16.8154C33.7802 12.3254 32.025 8.10372 28.8365 4.92773C25.6475 1.75186 21.4072 0.00206266 16.8895 7.62939e-06C7.57984 7.62939e-06 0.00376666 7.53738 1.15123e-06 16.8017ZM2.85164 16.8029C2.85462 9.10259 9.15158 2.83807 16.8948 2.83807C20.6445 2.83958 24.1686 4.29412 26.8193 6.93381C29.4697 9.57332 30.9281 13.0823 30.927 16.8142C30.9237 24.5147 24.6265 30.7802 16.8895 30.7802H16.8841C9.31098 30.7762 2.84812 24.4547 2.85164 16.8029Z"/>
<path fill-rule="evenodd" clip-rule="evenodd" d="M17.1639 21.6927C16.4311 22.3574 15.7062 23.0104 14.9875 23.6693C14.7363 23.8996 14.4536 24.0268 14.0932 24.0087C13.8477 23.9964 13.7099 23.8949 13.6347 23.6771C13.0847 22.0848 12.5258 20.4953 11.9783 18.9023C11.9249 18.7471 11.8446 18.6726 11.6773 18.6249C10.3805 18.2554 9.08624 17.8778 7.79367 17.4955C7.60229 17.4389 7.40851 17.3662 7.24246 17.2635C6.95346 17.0848 6.91222 16.8007 7.17613 16.595C7.41998 16.4049 7.70908 16.2458 8.00525 16.1366C9.64388 15.5326 11.2909 14.9481 12.9349 14.3567C16.8895 12.9341 20.8443 11.5117 24.7987 10.0884C25.5568 9.81552 26.1458 10.1939 26.0748 10.9559C26.0281 11.4581 25.8877 11.9538 25.7752 12.4497C24.8989 16.3091 24.0191 20.1678 23.1405 24.0268C23.1388 24.0342 23.1382 24.0419 23.1364 24.0493C22.9216 24.9321 22.2334 25.1734 21.4488 24.6353C20.0866 23.7011 18.7279 22.7626 17.3676 21.8261C17.3032 21.7819 17.2367 21.7403 17.1639 21.6927ZM14.1541 22.9081C14.1752 22.8175 14.1899 22.7757 14.1942 22.733C14.2807 21.8651 14.371 20.9976 14.4476 20.1289C14.4646 19.9361 14.5263 19.7938 14.6863 19.6599C16.7505 17.9329 18.8084 16.1993 20.8678 14.4674C21.4537 13.9747 22.0419 13.4845 22.6221 12.9861C22.683 12.9338 22.6962 12.8332 22.7316 12.7551C22.642 12.7314 22.5416 12.6714 22.465 12.6913C22.2882 12.7373 22.11 12.8028 21.9549 12.8937C18.8928 14.6888 15.8347 16.4897 12.7726 18.2847C12.6168 18.376 12.5723 18.4511 12.6348 18.6261C13.1196 19.9836 13.5905 21.3455 14.0664 22.7059C14.085 22.7592 14.1113 22.8101 14.1541 22.9081Z"/>
</svg>
