<svg width="28" height="30" viewBox="0 0 28 30" fill="none" xmlns="http://www.w3.org/2000/svg">
<path fill-rule="evenodd" clip-rule="evenodd" d="M14.4535 0.0208369C21.0197 0.0495884 23.9676 2.16587 24.6971 2.83152C27.1194 4.90772 28.4599 9.51406 27.5564 16.7965C26.7593 23.231 22.2247 24.371 20.7028 24.7537C20.5536 24.7912 20.4333 24.8214 20.3484 24.8486C19.9369 24.9811 16.3142 25.8772 11.6039 25.4851C11.0841 26.0828 10.3942 26.8647 9.89471 27.3971C9.74415 27.5575 9.60318 27.716 9.46844 27.8675C8.78874 28.6318 8.26748 29.2179 7.47193 28.9736C6.68386 28.7323 6.72791 27.5487 6.72791 27.5487L6.73232 24.6252H6.72571C-0.161613 22.7093 -0.0607366 15.6434 0.0172331 11.873C0.0952028 8.10263 0.834373 5.0615 2.93559 2.98311C6.71029 -0.44093 14.4535 0.0208369 14.4535 0.0208369ZM14.3321 2.07015C19.8864 2.09411 22.5484 3.74819 23.1651 4.30231C25.2144 6.03742 26.2584 10.1894 25.495 16.2721C24.83 21.5839 21.2268 22.4147 19.9253 22.7148C19.7809 22.748 19.6648 22.7748 19.5843 22.8004C19.242 22.9111 16.0593 23.6922 12.0591 23.4338C12.0591 23.4338 9.07773 26.9907 8.1465 27.9156C8.00113 28.0589 7.83022 28.1173 7.71612 28.0898C7.55754 28.0511 7.51349 27.8633 7.51349 27.5889C7.51613 27.1964 7.53904 22.7307 7.53904 22.7307C1.90864 21.1838 2.03938 15.5104 2.11359 12.2899C2.11614 12.1792 2.11863 12.0714 2.12081 11.9668C2.18644 8.81804 2.78509 6.23781 4.5621 4.5027C7.75489 1.64279 14.3321 2.07015 14.3321 2.07015Z" fill="#16213F"/>
<path fill-rule="evenodd" clip-rule="evenodd" d="M14.5669 9.41989C14.5776 9.21735 14.7523 9.06172 14.9571 9.07229C15.7234 9.11182 16.3609 9.3412 16.815 9.80547C17.2673 10.268 17.489 10.9141 17.5279 11.69C17.5381 11.8926 17.3803 12.0649 17.1754 12.075C16.9706 12.085 16.7963 11.929 16.7861 11.7264C16.7528 11.0622 16.5685 10.61 16.2811 10.3161C15.9954 10.024 15.5594 9.83883 14.9184 9.80576C14.7136 9.79519 14.5562 9.62243 14.5669 9.41989Z" fill="#16213F"/>
<path fill-rule="evenodd" clip-rule="evenodd" d="M14.0039 7.44152C14.0189 7.23924 14.1969 7.08727 14.4014 7.10207C15.9608 7.21493 17.216 7.74187 18.1303 8.72884L18.1304 8.72898C19.0348 9.70624 19.4646 10.922 19.4334 12.3479C19.429 12.5507 19.2592 12.7115 19.0541 12.7071C18.8491 12.7027 18.6865 12.5348 18.6909 12.332C18.7184 11.0745 18.3445 10.0482 17.5826 9.22484C16.8229 8.40491 15.7611 7.93691 14.3472 7.83458C14.1426 7.81978 13.989 7.6438 14.0039 7.44152Z" fill="#16213F"/>
<path fill-rule="evenodd" clip-rule="evenodd" d="M13.3477 5.56048C13.3491 5.35766 13.5165 5.1944 13.7216 5.19581C15.8766 5.21065 17.6982 5.92015 19.1608 7.33011C20.6356 8.75186 21.3649 10.6874 21.3834 13.0914C21.3849 13.2942 21.2199 13.4599 21.0149 13.4614C20.8098 13.463 20.6423 13.2998 20.6407 13.097C20.6234 10.8444 19.9457 9.11252 18.6423 7.85603C17.3268 6.58774 15.6933 5.94388 13.7164 5.93026C13.5113 5.92885 13.3462 5.76329 13.3477 5.56048Z" fill="#16213F"/>
<path d="M15.0106 16.6272C15.0106 16.6272 15.5326 16.6708 15.8137 16.3284L16.3617 15.6466C16.626 15.3086 17.2638 15.0929 17.8885 15.4371C18.3565 15.7011 18.811 15.9881 19.2501 16.297C19.6646 16.5985 20.5134 17.299 20.5161 17.299C20.9205 17.6366 21.0138 18.1323 20.7385 18.6551C20.7385 18.6581 20.7363 18.6634 20.7363 18.666C20.4331 19.1858 20.0481 19.6546 19.5959 20.0548C19.5906 20.0574 19.5906 20.06 19.5857 20.0626C19.1928 20.3873 18.8068 20.5718 18.4276 20.6163C18.3718 20.6259 18.3151 20.6294 18.2585 20.6267C18.0913 20.6283 17.925 20.603 17.766 20.5518L17.7537 20.5339C17.1695 20.371 16.1943 19.9633 14.5701 19.0772C13.6302 18.5705 12.7355 17.986 11.8954 17.3299C11.4743 17.0012 11.0726 16.649 10.6923 16.2748L10.6518 16.2347L10.6113 16.1946L10.5708 16.1546C10.5571 16.1415 10.5439 16.128 10.5302 16.1145C10.1519 15.7384 9.79565 15.3412 9.46332 14.9248C8.8 14.0941 8.20894 13.2093 7.69645 12.2801C6.80046 10.6735 6.38814 9.70987 6.22339 9.13136L6.20533 9.11916C6.15369 8.96193 6.12825 8.79743 6.13001 8.63212C6.12692 8.57616 6.13032 8.52004 6.14014 8.46484C6.18742 8.09049 6.37434 7.70845 6.7009 7.3187C6.70355 7.31391 6.70619 7.31391 6.70883 7.30868C7.11335 6.86143 7.58742 6.48084 8.11317 6.18128C8.11581 6.18128 8.1211 6.17866 8.12418 6.17866C8.65279 5.90639 9.15409 5.99875 9.49504 6.39648C9.49768 6.39909 10.2047 7.23855 10.5082 7.64847C10.8206 8.08312 11.1108 8.53296 11.3778 8.99631C11.7258 9.6136 11.5077 10.2457 11.1659 10.5062L10.4765 11.0481C10.1285 11.3261 10.1743 11.8423 10.1743 11.8423C10.1743 11.8423 11.1954 15.6641 15.0106 16.6272Z" fill="#16213F"/>
</svg>
