<svg width="34" height="34" viewBox="0 0 34 34" xmlns="http://www.w3.org/2000/svg">
<path d="M1.15123e-06 16.8017C-0.00339152 25.9922 7.79588 33.6146 16.8822 33.6179H16.8895C26.1975 33.6179 33.7747 26.0793 33.7787 16.8154C33.7802 12.3254 32.025 8.10372 28.8365 4.92773C25.6475 1.75186 21.4072 0.00206266 16.8895 7.62939e-06C7.57984 7.62939e-06 0.00376666 7.53738 1.15123e-06 16.8017ZM2.85164 16.8029C2.85462 9.10259 9.15158 2.83807 16.8948 2.83807C20.6445 2.83958 24.1686 4.29412 26.8193 6.93381C29.4697 9.57332 30.9281 13.0823 30.927 16.8142C30.9237 24.5147 24.6265 30.7802 16.8895 30.7802H16.8841C9.31098 30.7762 2.84812 24.4547 2.85164 16.8029Z"/>
<path fill-rule="evenodd" clip-rule="evenodd" d="M16.5267 24.2148H17.8303C17.8303 24.2148 18.2237 24.1723 18.4247 23.9589C18.6102 23.7623 18.6041 23.3941 18.6041 23.3941C18.6041 23.3941 18.5787 21.67 19.3902 21.4156C20.1902 21.1651 21.2181 23.0821 22.3068 23.8192C23.1307 24.3772 23.7567 24.255 23.7567 24.255L26.6687 24.2148C26.6687 24.2148 28.1917 24.1222 27.4695 22.9416C27.4102 22.8452 27.0483 22.0678 25.3043 20.4712C23.478 18.8002 23.7228 19.0705 25.9226 16.1794C27.2616 14.4196 27.7975 13.3446 27.6296 12.8845C27.4703 12.4457 26.4855 12.5619 26.4855 12.5619L23.2062 12.5816C23.2062 12.5816 22.9629 12.549 22.7827 12.6553C22.6071 12.7593 22.494 13.0022 22.494 13.0022C22.494 13.0022 21.9742 14.3642 21.2828 15.5227C19.8229 17.9674 19.2385 18.0964 18.9998 17.9446C18.4447 17.5908 18.5833 16.5241 18.5833 15.7657C18.5833 13.3962 18.9483 12.4085 17.8741 12.1527C17.5177 12.0684 17.2551 12.0122 16.3435 12.0031C15.1739 11.991 14.1837 12.0062 13.6232 12.2772C13.2497 12.4571 12.9618 12.8587 13.1373 12.8815C13.3537 12.9104 13.8449 13.0121 14.1052 13.3613C14.4409 13.8123 14.4293 14.8243 14.4293 14.8243C14.4293 14.8243 14.6226 17.6128 13.9781 17.9598C13.5361 18.1966 12.9302 17.7123 11.6282 15.4939C10.9614 14.3581 10.4578 13.1024 10.4578 13.1024C10.4578 13.1024 10.3608 12.8678 10.1876 12.7418C9.97736 12.59 9.684 12.5414 9.684 12.5414L6.56794 12.5619C6.56794 12.5619 6.10057 12.5748 5.92887 12.7752C5.77565 12.9536 5.91655 13.3226 5.91655 13.3226C5.91655 13.3226 8.35581 18.9498 11.1177 21.7854C13.6509 24.3856 16.5267 24.2148 16.5267 24.2148Z"/>
</svg>
