<svg width="30" height="30" viewBox="0 0 30 30" fill="none" xmlns="http://www.w3.org/2000/svg">
<circle cx="15.3239" cy="14.9147" r="13.7774" stroke="#16213F" stroke-width="1.8"/>
<g clip-path="url(#clip0_92_237)">
<path fill-rule="evenodd" clip-rule="evenodd" d="M15.1305 20.517H16.2103C16.2103 20.517 16.5363 20.4818 16.7027 20.3051C16.8565 20.1422 16.8514 19.8371 16.8514 19.8371C16.8514 19.8371 16.8303 18.4089 17.5026 18.1982C18.1653 17.9906 19.0168 19.5786 19.9188 20.1893C20.6012 20.6516 21.1198 20.5503 21.1198 20.5503L23.5321 20.517C23.5321 20.517 24.7938 20.4403 24.1955 19.4623C24.1464 19.3824 23.8466 18.7384 22.4019 17.4158C20.8889 16.0315 21.0917 16.2554 22.9141 13.8605C24.0233 12.4027 24.4672 11.5121 24.3282 11.131C24.1961 10.7675 23.3803 10.8637 23.3803 10.8637L20.6638 10.8801C20.6638 10.8801 20.4622 10.853 20.3129 10.9411C20.1675 11.0272 20.0737 11.2285 20.0737 11.2285C20.0737 11.2285 19.6432 12.3568 19.0704 13.3165C17.8611 15.3416 17.3769 15.4485 17.1792 15.3227C16.7193 15.0297 16.8341 14.146 16.8341 13.5177C16.8341 11.5549 17.1365 10.7367 16.2467 10.5247C15.9514 10.4549 15.7339 10.4084 14.9787 10.4008C14.0098 10.3908 13.1895 10.4033 12.7252 10.6279C12.4158 10.7769 12.1772 11.1096 12.3227 11.1285C12.5019 11.1524 12.9089 11.2367 13.1244 11.526C13.4025 11.8995 13.393 12.7379 13.393 12.7379C13.393 12.7379 13.5531 15.0479 13.0192 15.3353C12.6531 15.5315 12.1511 15.1303 11.0725 13.2926C10.5201 12.3517 10.103 11.3115 10.103 11.3115C10.103 11.3115 10.0226 11.1172 9.87909 11.0128C9.70496 10.887 9.46194 10.8467 9.46194 10.8467L6.88059 10.8637C6.88059 10.8637 6.49342 10.8744 6.35118 11.0404C6.22425 11.1882 6.34097 11.4939 6.34097 11.4939C6.34097 11.4939 8.36166 16.1554 10.6496 18.5045C12.7481 20.6585 15.1305 20.517 15.1305 20.517Z" fill="#16213F"/>
</g>
<defs>
<clipPath id="clip0_92_237">
<rect width="18.0645" height="10.1613" fill="white" transform="translate(6.29199 10.3984)"/>
</clipPath>
</defs>
</svg>
