<svg width="29" height="28" viewBox="0 0 29 28" fill="none" xmlns="http://www.w3.org/2000/svg">
<path d="M0.375292 13.8307C0.374386 16.2685 1.01848 18.6482 2.24273 20.7459L0.257812 27.9131L7.67479 25.9899C9.71827 27.0919 12.0191 27.6728 14.3605 27.6736H14.3666C22.0774 27.6736 28.3544 21.468 28.3576 13.842C28.359 10.1459 26.9049 6.67068 24.2635 4.05625C21.6218 1.44192 18.109 0.00150681 14.3666 -0.000185013C6.65446 -0.000185013 0.378361 6.20448 0.375241 13.8307H0.375292ZM4.79215 20.3847L4.51528 19.9498C3.35116 18.1193 2.7366 16.0039 2.7376 13.8317C2.74007 7.49294 7.95649 2.33607 14.371 2.33607C17.4773 2.33731 20.3966 3.53467 22.5925 5.70762C24.788 7.88043 25.9962 10.769 25.9953 13.841C25.9926 20.18 20.776 25.3376 14.3666 25.3376H14.3621C12.275 25.3365 10.2283 24.7824 8.44326 23.7348L8.01842 23.4858L3.61706 24.627L4.79215 20.3847Z" fill="#16213F"/>
<path fill-rule="evenodd" clip-rule="evenodd" d="M10.8693 8.04879C10.6074 7.47312 10.3318 7.46153 10.0826 7.45143C9.87886 7.44282 9.64556 7.44337 9.41266 7.44337C9.17962 7.44337 8.80082 7.52994 8.48053 7.87589C8.16004 8.22183 7.25684 9.05812 7.25684 10.759C7.25684 12.4602 8.50966 14.1037 8.68429 14.3346C8.85908 14.5651 11.1028 18.1671 14.6561 19.5529C17.6092 20.7045 18.2101 20.4754 18.8511 20.4178C19.4921 20.3602 20.9194 19.5817 21.2107 18.7744C21.5021 17.9672 21.5021 17.2754 21.4147 17.1307C21.3273 16.9866 21.0942 16.9002 20.7446 16.7273C20.3949 16.5544 18.6763 15.7179 18.3558 15.6027C18.0353 15.4875 17.8022 15.4299 17.5691 15.776C17.336 16.1218 16.6665 16.9002 16.4625 17.1308C16.2585 17.3618 16.0546 17.3906 15.705 17.2177C15.3553 17.0443 14.2294 16.6796 12.8937 15.5019C11.8545 14.5856 11.1529 13.454 10.9488 13.1079C10.7449 12.7621 10.9271 12.5748 11.1024 12.4025C11.2594 12.2476 11.4521 11.9989 11.6269 11.797C11.8013 11.5952 11.8596 11.4511 11.9761 11.2206C12.0926 10.9897 12.0344 10.7878 11.947 10.615C11.8596 10.4421 11.1802 8.73232 10.8693 8.04879Z" fill="#16213F"/>
</svg>
