<svg width="16" height="16" viewBox="0 0 16 16" fill="none" xmlns="http://www.w3.org/2000/svg">
<path d="M7.89626 0.306274C3.75742 0.306274 0.371094 3.66315 0.371094 7.766C0.371094 11.8689 3.75742 15.2257 7.89626 15.2257C12.0351 15.2257 15.4214 11.8689 15.4214 7.766C15.4214 3.66315 12.0351 0.306274 7.89626 0.306274ZM7.89626 2.17121C11.0192 2.17121 13.5401 4.67021 13.5401 7.766C13.5401 10.8618 11.0192 13.3608 7.89626 13.3608C4.77331 13.3608 2.25238 10.8618 2.25238 7.766C2.25238 4.67021 4.77331 2.17121 7.89626 2.17121ZM6.95561 4.03614V8.17629L7.25662 8.41873L8.19726 9.35119L8.8369 10.0599L10.1914 8.71712L9.47654 8.08304L8.8369 7.44896V4.07344H6.95561V4.03614Z" fill="#CB2E29"/>
</svg>
