<svg width="16" height="16" viewBox="0 0 16 16" fill="none" xmlns="http://www.w3.org/2000/svg">
<path d="M0.644531 0.306274H15.6949V15.2257H0.644531V0.306274Z" fill="white" fill-opacity="0.01"/>
<path d="M2.21094 6.21216H14.1258V12.7394C14.1258 13.0828 13.845 13.3611 13.4987 13.3611H2.83803C2.4917 13.3611 2.21094 13.0828 2.21094 12.7394V6.21216Z" stroke="#CB2E29" stroke-width="1.25419" stroke-linejoin="round"/>
<path d="M2.21094 3.10394C2.21094 2.76062 2.4917 2.4823 2.83803 2.4823H13.4987C13.845 2.4823 14.1258 2.76062 14.1258 3.10394V6.21216H2.21094V3.10394Z" stroke="#CB2E29" stroke-width="1.25419" stroke-linejoin="round"/>
<path d="M5.66016 1.5498V4.03638" stroke="#CB2E29" stroke-width="1.25419" stroke-linecap="round" stroke-linejoin="round"/>
<path d="M10.6758 1.5498V4.03638" stroke="#CB2E29" stroke-width="1.25419" stroke-linecap="round" stroke-linejoin="round"/>
<path d="M9.42188 10.8745H11.3032" stroke="#CB2E29" stroke-width="1.25419" stroke-linecap="round" stroke-linejoin="round"/>
<path d="M5.03125 10.8745H6.91254" stroke="#CB2E29" stroke-width="1.25419" stroke-linecap="round" stroke-linejoin="round"/>
<path d="M9.42188 8.38794H11.3032" stroke="#CB2E29" stroke-width="1.25419" stroke-linecap="round" stroke-linejoin="round"/>
<path d="M5.03125 8.38794H6.91254" stroke="#CB2E29" stroke-width="1.25419" stroke-linecap="round" stroke-linejoin="round"/>
</svg>
