<svg width="65" height="68" viewBox="0 0 65 68" fill="none" xmlns="http://www.w3.org/2000/svg">
<rect x="32.3392" y="24.3979" width="34.4708" height="9.10283" transform="rotate(-42.4321 32.3392 24.3979)" fill="#6D0F0F" stroke="#6D0F0F"/>
<path d="M30.3858 33.6088C29.636 33.7829 28.9789 33.0799 29.2031 32.3435L31.6317 24.367L38.5079 31.7239L30.3858 33.6088Z" fill="#6D0F0F"/>
<path d="M50.1421 52.4055L50.5496 66.0328H2.4707V13.5728H63.1299V49.8308H52.641C51.231 49.8308 50.0999 50.9962 50.1421 52.4055ZM61.5729 52.8308L53.4694 63.3052L53.1561 52.8308H61.5729Z" stroke="#6D0F0F" stroke-width="3"/>
<path d="M30.8813 55.1853H12.2793V39.7758M30.8813 24.3662H26.1616M26.1616 24.3662H12.2793V39.7758M26.1616 24.3662V39.9145H22.5522H29.4934M12.2793 39.7758L15.8886 39.9145M35.6017 55.1853H41.4323V25.7544" stroke="#6D0F0F"/>
</svg>
