<svg width="103" height="103" viewBox="0 0 103 103" fill="none" xmlns="http://www.w3.org/2000/svg">
<circle cx="51.6797" cy="51.6758" r="50" fill="#AB0E0F"/>
<path d="M23.4742 92.9124C23.4742 92.9124 27.7743 76.278 29.7743 71.678C32.1997 66.0997 34.1743 60.2797 37.8743 60.2797C42.4743 60.2797 47.5848 62.178 45.3501 58.6156C43.6536 55.9111 42.641 55.2597 41.2533 52.8839C38.0726 47.4381 35.9275 42.7146 36.2254 37.5375C36.5234 32.3604 37.2885 31.6208 39.0187 31.6208V22.0062C39.0187 20.7103 40.6615 21.1855 45.3501 23.6703C46.8743 24.478 47.299 23.8886 48.5158 23.6703C52.3743 22.978 59.6679 21.5499 64.9031 28.1078C67.2743 31.078 69.5265 38.462 64.9031 46.7823C63.5996 49.1281 63.5996 49.978 59.6743 50.778C57.934 51.1327 55.451 60.2797 51.6815 60.2797C47.4596 60.2797 42.3706 57.5062 40.136 48.2615C38.3507 40.8754 41.2533 41.1329 41.2533 38.462L42.3706 31.6208C42.3706 29.65 44.8361 34.278 47.7743 34.278C50.94 34.278 53.5378 31.6208 55.7743 31.6208C56.7054 31.6208 58.0503 32.7672 58.9441 35.8734C59.838 38.9797 62.4202 39.7562 63.5996 39.7562C64.779 41.2354 66.4301 44.7115 63.5996 46.7823C60.0614 49.3708 55.7743 58.6156 60.0614 60.2797C63.3598 61.56 64.7169 63.6078 63.5996 65.8266C62.4823 68.0453 58.2743 70.9902 51.6815 71.378C43.8743 71.8372 36.2086 64.5025 39.3743 63.578C41.9069 62.8384 48.9743 69.8533 57.4544 65.8266C61.738 63.7925 62.6743 58.6156 67.6743 58.6156C71.6743 58.6156 84.2955 91.078 84.2955 91.078M67.6743 99.978C81.9223 96.7269 90.418 85.7387 95.8743 75.378C101.163 65.3351 102.21 58.0758 101.074 46.7823C99.9382 35.4813 97.4692 28.5665 90.2743 19.778C84.3468 12.5375 79.6252 9.14494 70.9743 5.57801C62.2177 1.96749 56.3961 1.10702 46.9743 2.07801C35.7625 3.23347 29.1184 6.16599 20.3743 13.278C12.3934 19.7693 8.4166 24.9196 4.8743 34.578C0.970765 45.2213 0.889965 52.5638 3.5743 63.578C5.84488 72.8945 8.43803 78.2698 14.8743 85.378C18.5426 89.4293 20.9797 91.4798 25.6743 94.278C32.1241 98.1225 38.0771 99.6796 43.8742 100.478C51.3793 101.862 60.234 101.676 67.6743 99.978Z" stroke="white" stroke-width="3"/>
</svg>
