<svg width="120" height="120" viewBox="0 0 120 120" fill="none" xmlns="http://www.w3.org/2000/svg">
<g clip-path="url(#clip0_910_2)">
<path fill-rule="evenodd" clip-rule="evenodd" d="M40.5989 54.4202L59.878 82.094L79.2657 54.2642L101.449 84.1542C112.131 98.5474 102.517 100 85.0006 113.5C85.0006 113.5 69.8406 118.301 59.878 118C51.3501 117.742 38.4996 113.5 38.4996 113.5C26.0001 107.5 7.84966 98.5474 18.5317 84.1542L40.5989 54.4202Z" fill="#C00D0E"/>
<path d="M59.921 54.2645C71.1441 54.2645 80.2423 44.3555 80.2423 32.1322C80.2423 19.9089 71.1441 10 59.921 10C48.6978 10 39.5996 19.9089 39.5996 32.1322C39.5996 44.3555 48.6978 54.2645 59.921 54.2645Z" fill="#C00D0E"/>
<circle cx="60" cy="60" r="58.5" stroke="#C00D0E" stroke-width="3"/>
</g>
<defs>
<clipPath id="clip0_910_2">
<rect width="120" height="120" fill="white"/>
</clipPath>
</defs>
</svg>
