<svg width="104" height="104" viewBox="0 0 104 104" fill="none" xmlns="http://www.w3.org/2000/svg">
<ellipse cx="51.4694" cy="52.2479" rx="49.9225" ry="49.9979" fill="#AB0E0F"/>
<path d="M47.2977 46.5194C52.0831 52.8005 45.2658 54.3879 37.8709 61.2358C29.921 68.5976 34.5172 74.7203 37.8709 81.7333C41.2246 88.7464 39.7908 100.646 39.7908 100.646M35.3107 76.4469C31.4055 80.1469 41.8892 91.5889 34.0311 90.4465C22.337 88.7464 13.019 72.0847 12.3348 64.5474C11.8356 59.0477 14.4317 54.7478 22.337 47.5704C28.6371 41.8504 28.2104 30.3489 34.0311 21.8169C35.8509 19.1494 40.838 15.86 42.9325 20.2402C45.027 24.6203 47.2977 29.774 54.9756 27.7735C56.8542 27.284 60.9099 31.7939 60.9099 34.2557C60.9099 37.2339 56.2604 48.6258 50.2631 47.5704C44.2909 46.5194 37.4888 38.5414 39.7908 29.774C42.0486 21.1752 42.0888 17.0854 50.2631 14.6496C59.1994 11.9867 66.786 22.9849 68.415 27.7735C70.3383 33.4271 75.7021 43.0932 82.2264 53.5479C89.7148 65.5475 84.0238 86.0181 82.2264 85.2466C79.431 84.0466 77.8332 82.8468 72.5417 82.8468C67.2501 82.8468 65.8518 92.6181 65.8518 92.6181M54.9756 45.9316C53.1604 48.3144 55.5384 52.1557 57.6645 53.5479C60.2605 55.2478 62.0784 57.7524 63.5556 61.2358C64.5445 63.5677 65.3973 65.0375 65.0533 67.5474C64.6488 70.4984 61.8705 71.1281 60.9099 73.9472C59.638 77.6799 60.3195 79.1572 60.9099 84.0466C61.3733 87.884 64.2347 90.0014 65.8518 92.6181M39.7908 100.646C39.7908 100.646 50.7192 102.932 57.6645 102.046C62.5677 101.42 66.151 100.373 69.746 98.6953M39.7908 100.646C39.7908 100.646 33.4859 98.7689 29.7079 96.9461C24.4857 94.4264 21.5903 92.6798 17.3271 88.7464C11.9864 83.819 9.515 80.2371 6.44398 73.6471C2.25512 64.6582 1.13594 58.5341 1.95095 48.6481C2.65341 40.1273 4.30429 35.1962 8.54073 27.7735C13.2935 19.446 17.3092 15.0595 25.4145 9.94975C34.0013 4.53648 40.1195 2.58766 50.2631 2.35007C57.4522 2.18169 61.6673 2.96027 68.415 5.44994C76.797 8.54257 81.3473 11.5811 87.5182 18.0494C94.3207 25.1797 97.4843 30.4877 99.899 40.0485C102.155 48.9831 102.049 54.6866 99.899 63.6475C97.8209 72.3076 95.4678 77.2546 89.7148 84.0466C85.6326 88.8661 82.6971 91.1157 77.334 94.4462C74.5376 96.1827 72.1392 97.5786 69.746 98.6953M69.746 98.6953C69.746 98.6953 67.9959 96.0876 65.8518 92.6181" stroke="#FFFCFC" stroke-width="3"/>
</svg>
