<?xml version="1.0" standalone="no"?>
<!DOCTYPE svg PUBLIC "-//W3C//DTD SVG 20010904//EN"
 "http://www.w3.org/TR/2001/REC-SVG-20010904/DTD/svg10.dtd">
<svg version="1.0" xmlns="http://www.w3.org/2000/svg"
 width="68.000000pt" height="68.000000pt" viewBox="0 0 68.000000 68.000000"
 preserveAspectRatio="xMidYMid meet">

<g transform="translate(0.000000,68.000000) scale(0.100000,-0.100000)"
fill="#6D0F0F" stroke="none">
<path d="M7 673 c-4 -3 -7 -151 -7 -328 0 -236 3 -324 12 -333 19 -19 641 -17
657 2 8 9 11 107 9 337 l-3 324 -331 3 c-182 1 -333 -1 -337 -5z m643 -48 l0
-35 -310 0 -310 0 0 35 0 35 310 0 310 0 0 -35z m0 -330 l0 -265 -310 0 -310
0 0 265 0 265 310 0 310 0 0 -265z"/>
<path d="M60 625 c0 -8 9 -15 20 -15 11 0 20 7 20 15 0 8 -9 15 -20 15 -11 0
-20 -7 -20 -15z"/>
<path d="M127 633 c-14 -13 -6 -23 18 -23 16 0 25 6 25 15 0 15 -31 21 -43 8z"/>
<path d="M580 625 c0 -8 9 -15 20 -15 11 0 20 7 20 15 0 8 -9 15 -20 15 -11 0
-20 -7 -20 -15z"/>
<path d="M90 510 c-42 -42 -11 -113 50 -113 31 0 70 30 70 54 0 17 -25 9 -38
-11 -14 -22 -42 -26 -60 -8 -19 19 -14 56 8 68 11 6 20 15 20 20 0 17 -29 11
-50 -10z"/>
<path d="M172 500 c-7 -11 -21 -20 -32 -20 -23 0 -26 -13 -7 -29 10 -8 21 -3
45 22 18 18 29 36 26 40 -12 11 -18 8 -32 -13z"/>
<path d="M243 478 c2 -9 27 -13 77 -13 50 0 75 4 78 13 3 9 -17 12 -78 12 -61
0 -81 -3 -77 -12z"/>
<path d="M532 478 c6 -18 28 -21 28 -4 0 9 -7 16 -16 16 -9 0 -14 -5 -12 -12z"/>
<path d="M580 475 c0 -8 5 -15 10 -15 6 0 10 7 10 15 0 8 -4 15 -10 15 -5 0
-10 -7 -10 -15z"/>
<path d="M247 433 c-20 -19 9 -23 173 -23 153 0 180 2 180 15 0 13 -26 15
-173 15 -96 0 -177 -3 -180 -7z"/>
<path d="M86 338 c-51 -73 48 -151 103 -82 25 31 26 44 7 44 -8 0 -18 -9 -21
-21 -5 -16 -14 -19 -38 -17 -26 2 -33 8 -35 30 -2 19 3 31 17 40 26 16 27 28
2 28 -11 0 -27 -10 -35 -22z"/>
<path d="M171 336 c-13 -14 -29 -24 -35 -23 -6 1 -11 -5 -11 -13 0 -26 30 -21
60 10 19 20 26 33 19 40 -7 7 -18 2 -33 -14z"/>
<path d="M240 310 c0 -6 33 -10 80 -10 47 0 80 4 80 10 0 6 -33 10 -80 10 -47
0 -80 -4 -80 -10z"/>
<path d="M530 310 c0 -5 7 -10 15 -10 8 0 15 5 15 10 0 6 -7 10 -15 10 -8 0
-15 -4 -15 -10z"/>
<path d="M580 310 c0 -5 5 -10 10 -10 6 0 10 5 10 10 0 6 -4 10 -10 10 -5 0
-10 -4 -10 -10z"/>
<path d="M240 255 c0 -13 27 -15 180 -15 153 0 180 2 180 15 0 13 -27 15 -180
15 -153 0 -180 -2 -180 -15z"/>
<path d="M96 179 c-33 -26 -34 -68 -3 -97 13 -12 33 -22 46 -22 22 0 71 41 71
60 0 17 -25 11 -38 -10 -14 -22 -42 -26 -60 -8 -18 18 -14 46 8 60 20 13 28
38 11 38 -4 0 -20 -9 -35 -21z"/>
<path d="M179 174 c-7 -9 -23 -20 -36 -25 -27 -10 -30 -27 -7 -36 21 -8 83 52
68 67 -8 8 -15 6 -25 -6z"/>
<path d="M240 145 c0 -12 15 -15 81 -15 60 0 80 3 77 13 -3 8 -31 13 -81 15
-64 2 -77 0 -77 -13z"/>
<path d="M537 153 c-12 -11 -8 -23 8 -23 8 0 15 7 15 15 0 16 -12 20 -23 8z"/>
<path d="M580 145 c0 -8 5 -15 10 -15 6 0 10 7 10 15 0 8 -4 15 -10 15 -5 0
-10 -7 -10 -15z"/>
<path d="M242 88 c4 -10 51 -14 181 -16 153 -2 177 0 177 13 0 13 -26 15 -181
15 -140 0 -180 -3 -177 -12z"/>
</g>
</svg>
