<?xml version="1.0" standalone="no"?>
<!DOCTYPE svg PUBLIC "-//W3C//DTD SVG 20010904//EN"
 "http://www.w3.org/TR/2001/REC-SVG-20010904/DTD/svg10.dtd">
<svg version="1.0" xmlns="http://www.w3.org/2000/svg"
 width="69.000000pt" height="63.000000pt" viewBox="0 0 69.000000 63.000000"
 preserveAspectRatio="xMidYMid meet">

<g transform="translate(0.000000,63.000000) scale(0.100000,-0.100000)"
fill="#6D0F0F" stroke="none">
<path d="M134 617 c-3 -8 -4 -36 -2 -63 2 -36 7 -49 18 -49 20 0 22 116 3 122
-7 3 -16 -2 -19 -10z"/>
<path d="M517 624 c-13 -13 -8 -101 7 -113 22 -18 38 11 34 66 -2 34 -8 49
-18 51 -9 1 -19 0 -23 -4z"/>
<path d="M20 550 c-19 -19 -20 -33 -20 -268 0 -228 2 -250 18 -265 16 -15 54
-17 325 -17 294 0 308 1 327 20 19 19 20 33 20 263 0 242 0 244 -23 265 -14
13 -36 22 -55 22 -29 0 -32 -3 -32 -29 0 -31 -22 -61 -45 -61 -23 0 -45 30
-45 61 l0 30 -147 -3 -148 -3 -5 -34 c-10 -69 -72 -67 -78 3 -3 34 -5 36 -38
36 -21 0 -42 -8 -54 -20z m618 -307 l-3 -198 -295 0 -295 0 -3 198 -2 197 300
0 300 0 -2 -197z"/>
<path d="M228 365 c-2 -19 -2 -38 1 -40 2 -3 24 -5 48 -5 l44 0 -3 38 c-3 36
-4 37 -44 40 -41 3 -42 2 -46 -33z"/>
<path d="M364 386 c-3 -8 -4 -25 -2 -38 3 -20 9 -23 51 -26 l48 -3 -3 38 c-3
37 -4 38 -46 41 -30 2 -44 -1 -48 -12z"/>
<path d="M504 386 c-3 -8 -4 -25 -2 -38 3 -20 9 -23 51 -26 l48 -3 -3 38 c-3
37 -4 38 -46 41 -30 2 -44 -1 -48 -12z"/>
<path d="M90 240 l0 -40 45 0 45 0 0 40 0 40 -45 0 -45 0 0 -40z"/>
<path d="M230 239 l0 -40 43 3 c41 3 42 4 45 41 l3 37 -45 0 -46 0 0 -41z"/>
<path d="M364 266 c-3 -8 -4 -25 -2 -38 3 -20 9 -23 48 -23 45 0 45 0 48 38
l3 37 -46 0 c-30 0 -47 -5 -51 -14z"/>
<path d="M504 266 c-3 -8 -4 -25 -2 -38 3 -20 9 -23 48 -23 45 0 45 0 48 38
l3 37 -46 0 c-30 0 -47 -5 -51 -14z"/>
<path d="M90 125 c0 -35 0 -35 45 -35 45 0 45 0 45 35 0 35 0 35 -45 35 -45 0
-45 0 -45 -35z"/>
<path d="M228 155 c-2 -3 -3 -18 0 -35 4 -28 7 -30 48 -30 44 0 44 0 44 35 0
35 0 35 -43 35 -24 0 -46 -2 -49 -5z"/>
<path d="M367 153 c-4 -3 -7 -19 -7 -35 0 -27 2 -28 50 -28 l50 0 0 35 c0 35
0 35 -43 35 -24 0 -47 -3 -50 -7z"/>
</g>
</svg>
