<?xml version="1.0" standalone="no"?>
<!DOCTYPE svg PUBLIC "-//W3C//DTD SVG 20010904//EN"
 "http://www.w3.org/TR/2001/REC-SVG-20010904/DTD/svg10.dtd">
<svg version="1.0" xmlns="http://www.w3.org/2000/svg"
 width="66.000000pt" height="69.000000pt" viewBox="0 0 66.000000 69.000000"
 preserveAspectRatio="xMidYMid meet">

<g transform="translate(0.000000,69.000000) scale(0.100000,-0.100000)"
fill="#6D0F0F" stroke="none">
<path d="M253 676 c-41 -19 -63 -62 -63 -125 0 -27 -4 -53 -10 -56 -18 -11
-11 -40 25 -108 52 -98 51 -101 -58 -151 -82 -38 -95 -48 -110 -82 -19 -43
-38 -134 -31 -146 3 -5 152 -8 331 -8 l325 0 -7 57 c-7 58 -32 120 -57 140 -7
6 -48 25 -91 43 -43 18 -81 40 -85 48 -3 9 10 46 32 84 36 67 37 70 30 146 -7
87 -24 131 -56 151 -32 20 -137 24 -175 7z m170 -187 c15 -7 27 -19 27 -28 0
-12 3 -11 16 5 15 18 15 18 10 -7 -8 -39 -73 -142 -99 -156 -30 -17 -68 -16
-94 2 -26 18 -93 136 -93 162 1 15 3 13 14 -7 l14 -24 4 23 c6 46 127 64 201
30z m-107 -215 c13 -4 38 -1 55 6 37 16 43 11 29 -25 -22 -58 -74 -71 -115
-30 -29 28 -35 71 -9 61 9 -3 27 -9 40 -12z m-58 -38 c30 -65 107 -70 148 -9
12 18 24 29 28 26 3 -4 6 -33 6 -65 l0 -58 -105 0 -105 0 0 65 c0 68 9 82 28
41z m-88 -61 c0 -25 -4 -45 -9 -45 -6 0 -11 -24 -13 -52 l-3 -53 -62 -3 c-35
-2 -63 1 -63 5 0 22 32 128 42 141 14 16 78 51 96 52 8 0 12 -15 12 -45z m403
18 c32 -16 54 -62 64 -128 l6 -45 -62 0 -61 0 0 55 c0 30 -4 55 -10 55 -5 0
-10 21 -10 46 0 42 1 45 23 38 12 -3 35 -13 50 -21z"/>
</g>
</svg>
