<?xml version="1.0" standalone="no"?>
<!DOCTYPE svg PUBLIC "-//W3C//DTD SVG 20010904//EN"
 "http://www.w3.org/TR/2001/REC-SVG-20010904/DTD/svg10.dtd">
<svg version="1.0" xmlns="http://www.w3.org/2000/svg"
 width="65.000000pt" height="65.000000pt" viewBox="0 0 65.000000 65.000000"
 preserveAspectRatio="xMidYMid meet">

<g transform="translate(0.000000,65.000000) scale(0.100000,-0.100000)"
fill="#044E04" stroke="none">
<path d="M279 628 c-18 -13 -43 -21 -75 -22 -45 -1 -50 -3 -65 -36 -10 -21
-31 -43 -55 -56 -37 -20 -39 -22 -39 -72 -1 -39 -6 -57 -23 -75 -28 -29 -28
-45 0 -74 17 -18 22 -36 23 -76 0 -50 1 -52 39 -70 28 -13 42 -29 54 -58 15
-39 16 -39 68 -39 42 0 59 -5 83 -26 l31 -26 31 26 c24 21 41 26 83 26 53 0
53 0 69 41 13 32 24 43 56 56 41 16 41 16 41 69 0 42 5 59 26 83 l26 31 -26
31 c-21 24 -26 41 -26 83 0 53 0 53 -41 69 -32 13 -43 24 -56 56 -16 41 -17
41 -68 41 -37 0 -60 6 -78 20 -31 25 -45 24 -78 -2z m160 -80 c190 -98 166
-381 -38 -453 -80 -28 -149 -17 -228 36 -77 53 -116 156 -95 249 38 163 212
244 361 168z"/>
<path d="M235 516 c-34 -15 -92 -76 -106 -113 -13 -36 -11 -119 5 -156 46
-110 185 -155 290 -93 50 29 90 88 100 146 14 80 -45 184 -121 216 -41 18
-129 17 -168 0z m225 -105 c5 -11 10 -23 10 -27 0 -3 -37 -44 -82 -90 -101
-104 -114 -106 -187 -30 -56 60 -55 59 -41 87 16 28 50 23 87 -13 l33 -32 63
62 c65 65 98 77 117 43z"/>
</g>
</svg>
