<?xml version="1.0" standalone="no"?>
<!DOCTYPE svg PUBLIC "-//W3C//DTD SVG 20010904//EN"
 "http://www.w3.org/TR/2001/REC-SVG-20010904/DTD/svg10.dtd">
<svg version="1.0" xmlns="http://www.w3.org/2000/svg"
 width="64.000000pt" height="67.000000pt" viewBox="0 0 64.000000 67.000000"
 preserveAspectRatio="xMidYMid meet">

<g transform="translate(0.000000,67.000000) scale(0.100000,-0.100000)"
fill="#6D0F0F" stroke="none">
<path d="M224 656 c-55 -24 -84 -79 -90 -175 -7 -97 -6 -105 13 -121 17 -14
63 -81 63 -93 0 -2 -30 -10 -67 -17 -93 -18 -116 -42 -132 -140 -19 -117 -30
-113 313 -108 301 3 316 6 316 56 0 53 -28 147 -49 163 -11 9 -51 22 -88 29
-37 7 -71 14 -75 17 -7 3 24 58 66 117 16 22 17 31 7 52 -6 14 -11 53 -11 87
0 39 -6 71 -15 83 -18 26 -81 58 -101 50 -8 -3 -14 -2 -14 2 0 14 -104 12
-136 -2z m211 -152 c14 -15 25 -35 25 -45 0 -11 5 -19 10 -19 23 0 7 -48 -30
-88 -37 -42 -42 -44 -87 -40 -38 2 -48 0 -48 -12 0 -12 10 -14 48 -12 53 4 60
-7 20 -34 -60 -39 -130 -8 -173 77 -11 20 -26 39 -35 42 -17 7 -21 52 -5 62 6
3 10 16 10 29 0 12 5 27 12 34 15 15 71 16 118 2 29 -8 39 -7 60 9 34 27 47
26 75 -5z m-172 -273 c15 -8 27 -20 27 -28 0 -7 5 -13 11 -13 9 0 4 -57 -7
-69 -4 -4 -97 96 -102 110 -2 4 5 9 15 12 21 5 20 6 56 -12z m175 11 c9 -6 -1
-23 -34 -63 -26 -30 -50 -55 -54 -57 -13 -5 -21 60 -9 74 6 8 8 14 3 14 -12 0
58 39 71 39 6 1 16 -3 23 -7z m-198 -97 c41 -47 77 -85 81 -85 4 0 40 39 80
86 l73 86 45 -6 c25 -3 53 -14 63 -24 16 -16 48 -156 37 -166 -5 -5 -59 -9
-101 -7 -24 1 -28 5 -28 31 0 40 -18 38 -22 -2 l-3 -33 -142 -3 -143 -2 0 35
c0 44 -18 46 -22 3 -3 -33 -4 -33 -59 -36 -76 -4 -84 6 -68 93 7 36 18 73 24
81 10 14 57 31 95 33 8 0 49 -37 90 -84z"/>
</g>
</svg>
