<svg width="281" height="78" viewBox="0 0 281 78" fill="none" xmlns="http://www.w3.org/2000/svg">
<path d="M1 39.8723C1 39.8723 117.852 40.533 120.038 39.6476C122.223 38.7621 119.633 70.19 123.832 74.9834C127.022 78.6259 156.633 75.0157 173.22 72.4326C174.673 72.2062 175.727 70.9555 175.664 69.4855C175.488 65.3692 174.925 57.8687 173.545 48.1198C173.416 47.2083 173.612 40.3206 173.545 39.326M173.545 39.326C172.469 23.4814 178.343 4.05887 173.545 1.97722C169.71 0.313678 142.302 1.12588 126.674 1.84183C125.079 1.91489 123.829 3.22643 123.826 4.82288C123.793 20.4343 123.755 47.1309 123.832 48.1198C123.934 49.4348 128.216 47.4795 128.726 48.1198C129.236 48.76 130.969 46.8047 131.683 45.2566C132.397 43.7085 133.824 45.2566 133.926 47.4795C134.028 49.7025 136.985 48.1198 137.189 46.8047C137.312 46.0092 138.026 45.8524 138.617 45.8941C138.959 45.9182 139.269 46.083 139.548 46.2814L140.452 46.9245C140.96 47.2855 141.582 47.5007 142.164 47.2777C142.97 46.9687 143.734 46.3884 143.734 46.142C143.734 45.0512 142.247 44.8683 142.247 46.142V46.142C142.308 46.7974 143.154 47.0072 143.508 46.4524C144.656 44.6542 146.274 42.0392 146.006 41.9906C144.111 41.6482 142.219 41.1084 142.247 40.9709C145.074 27.955 148.207 20.005 149.572 16.3444C149.98 15.2513 150.945 14.517 152.058 14.8666C152.885 15.1264 153.406 15.0733 153.39 12.555C153.383 11.5275 152.728 10.6598 151.954 9.98463C150.705 8.89571 151.417 8.26116 152.225 8.3953C153.752 8.64871 153.757 10.0094 153.324 10.2784C152.754 10.6336 152.225 10.1928 151.21 9.7648C150.196 9.33683 148.082 10.6207 148.082 14.3868C148.082 16.6018 147.579 18.6114 147.111 19.7813C146.864 20.398 146.465 20.9979 146.179 21.5971C145.976 22.0216 145.839 22.5228 146.111 22.9707C146.788 24.0834 148.843 18.4097 148.758 17.8106C148.709 17.462 149.015 15.1602 149.304 13.1515C149.48 11.9331 151.524 10.8452 150.673 11.7345C150.556 11.8568 150.399 11.9983 150.196 12.1614C149.278 12.8965 149.823 13.6479 150.715 14.2552C151.883 15.051 152.732 16.3269 152.473 17.7165C152.057 19.9389 151.481 22.5448 151.007 23.6153C150.858 23.9533 150.526 24.1262 150.168 24.2189C148.361 24.6869 147.812 24.8953 147.848 25.0365C147.893 25.2146 147.919 25.1716 148.103 25.1716V25.1716C149.282 25.1716 150.391 26.2989 150.07 27.4339L146.568 39.8131C146.109 41.4358 144.282 42.6909 142.772 41.9398C142.54 41.824 142.368 41.6778 142.247 41.4654C142.026 41.076 142.06 45.6978 142.063 45.9692C142.063 45.978 142.063 45.9863 142.063 45.9951C142.068 47.316 142.817 47.4795 144.327 47.4795C146.221 47.4795 154.01 44.8045 155.745 46.142C157.357 47.3845 162.241 49.8593 163.769 49.6117C163.973 49.5785 164.129 49.4289 164.27 49.2773L173.545 39.326ZM173.545 39.326H281" stroke="#AB0E0F" stroke-width="2"/>
</svg>
