<svg width="280" height="61" viewBox="0 0 280 61" fill="none" xmlns="http://www.w3.org/2000/svg">
<path d="M0 31.1713H110.297C124.968 32.3764 123.288 51.4461 132.914 51.4461C138.721 51.4461 152.504 59.2816 153.809 59.2816C155.802 59.2816 158.099 60.6771 159.787 59.2816C161.725 57.6794 162.372 56.1594 161.207 55.127C159.186 53.3366 156.56 57.0091 153.809 57.0091C152.936 57.0091 143.323 52.5953 139.373 50.325C135.748 48.241 131.751 41.4383 131.751 32.0328C131.751 24.6355 132.588 17.568 130.908 17.568C128.906 17.568 126.797 20.5184 126.797 25.5889C126.797 34.9498 132.332 35.1463 132.914 32.0328C133.495 28.9192 132.091 15.3748 135.045 10.4973C137.952 5.69731 150.347 -4.13328 165.464 4.29924C173.004 8.50579 172.018 17.9785 170.467 22.3029M170.467 22.3029C167.779 19.4398 164.303 18.6056 162.306 18.6056C155.603 18.6056 150.382 23.7311 150.382 23.7311C150.382 23.7311 148.352 18.2206 150.962 15.0303C150.962 15.0303 143.131 17.6405 138.781 23.151M170.467 22.3029C172.599 24.5733 168.304 32.9212 171.156 33.5896C173.094 34.0437 175.594 30.7615 175.942 27.149C176.566 20.6744 174.578 18.1344 171.156 18.1344C169.81 18.1344 169.994 20.8532 169.994 22.3029C169.994 24.2071 171.751 20.7912 171.751 24.0543C171.751 35.6997 199.149 32.0328 220.003 32.0328H280M138.781 23.151C136.498 25.5763 135.627 28.1408 135.627 28.1408C135.627 28.1408 133.851 20.5408 139.567 11.0812C141.734 7.49609 146.66 4.00928 152.702 4.00928C158.387 4.00928 164.884 5.45941 167.862 10.4973C170.354 14.7127 166.965 28.7466 165.988 32.8112C165.174 36.2022 162.273 42.2927 159.206 44.8763C156.438 47.2073 151.336 48.9158 145.252 44.5519C142.087 42.2816 138.789 36.4696 138.34 32.0328C137.911 27.7914 138.34 25.1812 138.781 23.151Z" stroke="#AB0E0F" stroke-width="2"/>
</svg>
