<svg width="0" height="0" class="hidden">
  <symbol fill="none" xmlns="http://www.w3.org/2000/svg" viewBox="0 0 30 30" id="telegram">
    <circle cx="15.0661" cy="14.9147" r="13.7774" stroke="#16213F" stroke-width="1.8"></circle>
    <path fill-rule="evenodd" clip-rule="evenodd" d="M14.454 18.5574C13.8469 19.1046 13.2464 19.6421 12.6511 20.1845C12.4429 20.3741 12.2088 20.4788 11.9102 20.4639C11.7069 20.4538 11.5927 20.3702 11.5304 20.1909C11.0748 18.8802 10.6118 17.5717 10.1582 16.2603C10.114 16.1327 10.0475 16.0713 9.90885 16.0321C8.83457 15.7278 7.76242 15.417 6.69166 15.1023C6.53311 15.0557 6.37259 14.9959 6.23504 14.9113C5.99563 14.7642 5.96146 14.5304 6.18009 14.3611C6.3821 14.2046 6.62158 14.0736 6.86694 13.9837C8.22438 13.4865 9.58874 13.0054 10.9506 12.5185C14.2267 11.3475 17.5029 10.1765 20.7787 9.00488C21.4067 8.78026 21.8947 9.09177 21.8358 9.71897C21.7971 10.1324 21.6808 10.5405 21.5876 10.9487C20.8616 14.1257 20.1329 17.3022 19.405 20.4788C19.4036 20.4849 19.4032 20.4912 19.4017 20.4973C19.2237 21.224 18.6536 21.4227 18.0036 20.9797C16.8752 20.2106 15.7496 19.4381 14.6227 18.6672C14.5694 18.6308 14.5143 18.5966 14.454 18.5574ZM11.9606 19.5579C11.9782 19.4833 11.9903 19.4489 11.9939 19.4138C12.0655 18.6993 12.1404 17.9852 12.2038 17.2701C12.2179 17.1114 12.269 16.9942 12.4015 16.884C14.1115 15.4624 15.8163 14.0353 17.5223 12.6096C18.0077 12.204 18.495 11.8005 18.9756 11.3902C19.026 11.3472 19.037 11.2644 19.0663 11.2001C18.9921 11.1806 18.9089 11.1312 18.8455 11.1476C18.699 11.1854 18.5513 11.2394 18.4228 11.3142C15.8862 12.7919 13.3529 14.2744 10.8162 15.7519C10.6871 15.8271 10.6503 15.889 10.702 16.033C11.1037 17.1505 11.4937 18.2716 11.888 19.3914C11.9034 19.4353 11.9252 19.4773 11.9606 19.5579Z" fill="#16213F"></path>
  </symbol>
  <symbol xmlns="http://www.w3.org/2000/svg" viewBox="0 0 28 30" id="viber">
    <path fill-rule="evenodd" clip-rule="evenodd" d="M14.4535 0.0208369C21.0197 0.0495884 23.9676 2.16587 24.6971 2.83152C27.1194 4.90772 28.4599 9.51406 27.5564 16.7965C26.7593 23.231 22.2247 24.371 20.7028 24.7537C20.5536 24.7912 20.4333 24.8214 20.3484 24.8486C19.9369 24.9811 16.3142 25.8772 11.6039 25.4851C11.0841 26.0828 10.3942 26.8647 9.89471 27.3971C9.74415 27.5575 9.60318 27.716 9.46844 27.8675C8.78874 28.6318 8.26748 29.2179 7.47193 28.9736C6.68386 28.7323 6.72791 27.5487 6.72791 27.5487L6.73232 24.6252H6.72571C-0.161613 22.7093 -0.0607366 15.6434 0.0172331 11.873C0.0952028 8.10263 0.834373 5.0615 2.93559 2.98311C6.71029 -0.44093 14.4535 0.0208369 14.4535 0.0208369ZM14.3321 2.07015C19.8864 2.09411 22.5484 3.74819 23.1651 4.30231C25.2144 6.03742 26.2584 10.1894 25.495 16.2721C24.83 21.5839 21.2268 22.4147 19.9253 22.7148C19.7809 22.748 19.6648 22.7748 19.5843 22.8004C19.242 22.9111 16.0593 23.6922 12.0591 23.4338C12.0591 23.4338 9.07773 26.9907 8.1465 27.9156C8.00113 28.0589 7.83022 28.1173 7.71612 28.0898C7.55754 28.0511 7.51349 27.8633 7.51349 27.5889C7.51613 27.1964 7.53904 22.7307 7.53904 22.7307C1.90864 21.1838 2.03938 15.5104 2.11359 12.2899C2.11614 12.1792 2.11863 12.0714 2.12081 11.9668C2.18644 8.81804 2.78509 6.23781 4.5621 4.5027C7.75489 1.64279 14.3321 2.07015 14.3321 2.07015Z"></path>
    <path fill-rule="evenodd" clip-rule="evenodd" d="M14.5669 9.41989C14.5776 9.21735 14.7523 9.06172 14.9571 9.07229C15.7234 9.11182 16.3609 9.3412 16.815 9.80547C17.2673 10.268 17.489 10.9141 17.5279 11.69C17.5381 11.8926 17.3803 12.0649 17.1754 12.075C16.9706 12.085 16.7963 11.929 16.7861 11.7264C16.7528 11.0622 16.5685 10.61 16.2811 10.3161C15.9954 10.024 15.5594 9.83883 14.9184 9.80576C14.7136 9.79519 14.5562 9.62243 14.5669 9.41989Z"></path>
    <path fill-rule="evenodd" clip-rule="evenodd" d="M14.0039 7.44152C14.0189 7.23924 14.1969 7.08727 14.4014 7.10207C15.9608 7.21493 17.216 7.74187 18.1303 8.72884L18.1304 8.72898C19.0348 9.70624 19.4646 10.922 19.4334 12.3479C19.429 12.5507 19.2592 12.7115 19.0541 12.7071C18.8491 12.7027 18.6865 12.5348 18.6909 12.332C18.7184 11.0745 18.3445 10.0482 17.5826 9.22484C16.8229 8.40491 15.7611 7.93691 14.3472 7.83458C14.1426 7.81978 13.989 7.6438 14.0039 7.44152Z"></path>
    <path fill-rule="evenodd" clip-rule="evenodd" d="M13.3477 5.56048C13.3491 5.35766 13.5165 5.1944 13.7216 5.19581C15.8766 5.21065 17.6982 5.92015 19.1608 7.33011C20.6356 8.75186 21.3649 10.6874 21.3834 13.0914C21.3849 13.2942 21.2199 13.4599 21.0149 13.4614C20.8098 13.463 20.6423 13.2998 20.6407 13.097C20.6234 10.8444 19.9457 9.11252 18.6423 7.85603C17.3268 6.58774 15.6933 5.94388 13.7164 5.93026C13.5113 5.92885 13.3462 5.76329 13.3477 5.56048Z"></path>
    <path d="M15.0106 16.6272C15.0106 16.6272 15.5326 16.6708 15.8137 16.3284L16.3617 15.6466C16.626 15.3086 17.2638 15.0929 17.8885 15.4371C18.3565 15.7011 18.811 15.9881 19.2501 16.297C19.6646 16.5985 20.5134 17.299 20.5161 17.299C20.9205 17.6366 21.0138 18.1323 20.7385 18.6551C20.7385 18.6581 20.7363 18.6634 20.7363 18.666C20.4331 19.1858 20.0481 19.6546 19.5959 20.0548C19.5906 20.0574 19.5906 20.06 19.5857 20.0626C19.1928 20.3873 18.8068 20.5718 18.4276 20.6163C18.3718 20.6259 18.3151 20.6294 18.2585 20.6267C18.0913 20.6283 17.925 20.603 17.766 20.5518L17.7537 20.5339C17.1695 20.371 16.1943 19.9633 14.5701 19.0772C13.6302 18.5705 12.7355 17.986 11.8954 17.3299C11.4743 17.0012 11.0726 16.649 10.6923 16.2748L10.6518 16.2347L10.6113 16.1946L10.5708 16.1546C10.5571 16.1415 10.5439 16.128 10.5302 16.1145C10.1519 15.7384 9.79565 15.3412 9.46332 14.9248C8.8 14.0941 8.20894 13.2093 7.69645 12.2801C6.80046 10.6735 6.38814 9.70987 6.22339 9.13136L6.20533 9.11916C6.15369 8.96193 6.12825 8.79743 6.13001 8.63212C6.12692 8.57616 6.13032 8.52004 6.14014 8.46484C6.18742 8.09049 6.37434 7.70845 6.7009 7.3187C6.70355 7.31391 6.70619 7.31391 6.70883 7.30868C7.11335 6.86143 7.58742 6.48084 8.11317 6.18128C8.11581 6.18128 8.1211 6.17866 8.12418 6.17866C8.65279 5.90639 9.15409 5.99875 9.49504 6.39648C9.49768 6.39909 10.2047 7.23855 10.5082 7.64847C10.8206 8.08312 11.1108 8.53296 11.3778 8.99631C11.7258 9.6136 11.5077 10.2457 11.1659 10.5062L10.4765 11.0481C10.1285 11.3261 10.1743 11.8423 10.1743 11.8423C10.1743 11.8423 11.1954 15.6641 15.0106 16.6272Z"></path>
  </symbol>
  <symbol fill="none" xmlns="http://www.w3.org/2000/svg" viewBox="0 0 29 28" id="whatsapp">
    <path d="M0.375292 13.8307C0.374386 16.2685 1.01848 18.6482 2.24273 20.7459L0.257812 27.9131L7.67479 25.9899C9.71827 27.0919 12.0191 27.6728 14.3605 27.6736H14.3666C22.0774 27.6736 28.3544 21.468 28.3576 13.842C28.359 10.1459 26.9049 6.67068 24.2635 4.05625C21.6218 1.44192 18.109 0.00150681 14.3666 -0.000185013C6.65446 -0.000185013 0.378361 6.20448 0.375241 13.8307H0.375292ZM4.79215 20.3847L4.51528 19.9498C3.35116 18.1193 2.7366 16.0039 2.7376 13.8317C2.74007 7.49294 7.95649 2.33607 14.371 2.33607C17.4773 2.33731 20.3966 3.53467 22.5925 5.70762C24.788 7.88043 25.9962 10.769 25.9953 13.841C25.9926 20.18 20.776 25.3376 14.3666 25.3376H14.3621C12.275 25.3365 10.2283 24.7824 8.44326 23.7348L8.01842 23.4858L3.61706 24.627L4.79215 20.3847Z" fill="#16213F"></path>
    <path fill-rule="evenodd" clip-rule="evenodd" d="M10.8693 8.04879C10.6074 7.47312 10.3318 7.46153 10.0826 7.45143C9.87886 7.44282 9.64556 7.44337 9.41266 7.44337C9.17962 7.44337 8.80082 7.52994 8.48053 7.87589C8.16004 8.22183 7.25684 9.05812 7.25684 10.759C7.25684 12.4602 8.50966 14.1037 8.68429 14.3346C8.85908 14.5651 11.1028 18.1671 14.6561 19.5529C17.6092 20.7045 18.2101 20.4754 18.8511 20.4178C19.4921 20.3602 20.9194 19.5817 21.2107 18.7744C21.5021 17.9672 21.5021 17.2754 21.4147 17.1307C21.3273 16.9866 21.0942 16.9002 20.7446 16.7273C20.3949 16.5544 18.6763 15.7179 18.3558 15.6027C18.0353 15.4875 17.8022 15.4299 17.5691 15.776C17.336 16.1218 16.6665 16.9002 16.4625 17.1308C16.2585 17.3618 16.0546 17.3906 15.705 17.2177C15.3553 17.0443 14.2294 16.6796 12.8937 15.5019C11.8545 14.5856 11.1529 13.454 10.9488 13.1079C10.7449 12.7621 10.9271 12.5748 11.1024 12.4025C11.2594 12.2476 11.4521 11.9989 11.6269 11.797C11.8013 11.5952 11.8596 11.4511 11.9761 11.2206C12.0926 10.9897 12.0344 10.7878 11.947 10.615C11.8596 10.4421 11.1802 8.73232 10.8693 8.04879Z" fill="#16213F"></path>
  </symbol>
  <symbol fill="none" xmlns="http://www.w3.org/2000/svg" viewBox="0 0 30 30" id="vk">
    <circle cx="15.3239" cy="14.9147" r="13.7774" stroke="#16213F" stroke-width="1.8"></circle>
    <g clip-path="url(#clip0_92_237)">
      <path fill-rule="evenodd" clip-rule="evenodd" d="M15.1305 20.517H16.2103C16.2103 20.517 16.5363 20.4818 16.7027 20.3051C16.8565 20.1422 16.8514 19.8371 16.8514 19.8371C16.8514 19.8371 16.8303 18.4089 17.5026 18.1982C18.1653 17.9906 19.0168 19.5786 19.9188 20.1893C20.6012 20.6516 21.1198 20.5503 21.1198 20.5503L23.5321 20.517C23.5321 20.517 24.7938 20.4403 24.1955 19.4623C24.1464 19.3824 23.8466 18.7384 22.4019 17.4158C20.8889 16.0315 21.0917 16.2554 22.9141 13.8605C24.0233 12.4027 24.4672 11.5121 24.3282 11.131C24.1961 10.7675 23.3803 10.8637 23.3803 10.8637L20.6638 10.8801C20.6638 10.8801 20.4622 10.853 20.3129 10.9411C20.1675 11.0272 20.0737 11.2285 20.0737 11.2285C20.0737 11.2285 19.6432 12.3568 19.0704 13.3165C17.8611 15.3416 17.3769 15.4485 17.1792 15.3227C16.7193 15.0297 16.8341 14.146 16.8341 13.5177C16.8341 11.5549 17.1365 10.7367 16.2467 10.5247C15.9514 10.4549 15.7339 10.4084 14.9787 10.4008C14.0098 10.3908 13.1895 10.4033 12.7252 10.6279C12.4158 10.7769 12.1772 11.1096 12.3227 11.1285C12.5019 11.1524 12.9089 11.2367 13.1244 11.526C13.4025 11.8995 13.393 12.7379 13.393 12.7379C13.393 12.7379 13.5531 15.0479 13.0192 15.3353C12.6531 15.5315 12.1511 15.1303 11.0725 13.2926C10.5201 12.3517 10.103 11.3115 10.103 11.3115C10.103 11.3115 10.0226 11.1172 9.87909 11.0128C9.70496 10.887 9.46194 10.8467 9.46194 10.8467L6.88059 10.8637C6.88059 10.8637 6.49342 10.8744 6.35118 11.0404C6.22425 11.1882 6.34097 11.4939 6.34097 11.4939C6.34097 11.4939 8.36166 16.1554 10.6496 18.5045C12.7481 20.6585 15.1305 20.517 15.1305 20.517Z" fill="#16213F"></path>
    </g>
    <defs>
      <clipPath id="clip0_92_237">
        <rect width="18.0645" height="10.1613" fill="white" transform="translate(6.29199 10.3984)"></rect>
      </clipPath>
    </defs>
  </symbol>
</svg>