<svg width="0" height="0" class="hidden">
  <symbol version="1.1" xmlns="http://www.w3.org/2000/svg" xmlns:xlink="http://www.w3.org/1999/xlink" x="0px" y="0px" xml:space="preserve" viewBox="0 0 330.001 330.001" id="email">
    <path d="M173.871,177.097c-2.641,1.936-5.756,2.903-8.87,2.903c-3.116,0-6.23-0.967-8.871-2.903L30,84.602 L0.001,62.603L0,275.001c0.001,8.284,6.716,15,15,15L315.001,290c8.285,0,15-6.716,15-14.999V62.602l-30.001,22L173.871,177.097z"></path>
    <polygon points="165.001,146.4 310.087,40.001 19.911,40"></polygon>
  </symbol>
  <symbol version="1.1" xmlns="http://www.w3.org/2000/svg" xmlns:xlink="http://www.w3.org/1999/xlink" viewBox="0 0 16 16" id="phone">
    <path d="M11 10c-1 1-1 2-2 2s-2-1-3-2-2-2-2-3 1-1 2-2-2-4-3-4-3 3-3 3c0 2 2.055 6.055 4 8s6 4 8 4c0 0 3-2 3-3s-3-4-4-3z"></path>
  </symbol>
  <symbol xmlns="http://www.w3.org/2000/svg" viewBox="0 0 34 34" id="telegram">
    <path d="M1.15123e-06 16.8017C-0.00339152 25.9922 7.79588 33.6146 16.8822 33.6179H16.8895C26.1975 33.6179 33.7747 26.0793 33.7787 16.8154C33.7802 12.3254 32.025 8.10372 28.8365 4.92773C25.6475 1.75186 21.4072 0.00206266 16.8895 7.62939e-06C7.57984 7.62939e-06 0.00376666 7.53738 1.15123e-06 16.8017ZM2.85164 16.8029C2.85462 9.10259 9.15158 2.83807 16.8948 2.83807C20.6445 2.83958 24.1686 4.29412 26.8193 6.93381C29.4697 9.57332 30.9281 13.0823 30.927 16.8142C30.9237 24.5147 24.6265 30.7802 16.8895 30.7802H16.8841C9.31098 30.7762 2.84812 24.4547 2.85164 16.8029Z"></path>
    <path fill-rule="evenodd" clip-rule="evenodd" d="M17.1639 21.6927C16.4311 22.3574 15.7062 23.0104 14.9875 23.6693C14.7363 23.8996 14.4536 24.0268 14.0932 24.0087C13.8477 23.9964 13.7099 23.8949 13.6347 23.6771C13.0847 22.0848 12.5258 20.4953 11.9783 18.9023C11.9249 18.7471 11.8446 18.6726 11.6773 18.6249C10.3805 18.2554 9.08624 17.8778 7.79367 17.4955C7.60229 17.4389 7.40851 17.3662 7.24246 17.2635C6.95346 17.0848 6.91222 16.8007 7.17613 16.595C7.41998 16.4049 7.70908 16.2458 8.00525 16.1366C9.64388 15.5326 11.2909 14.9481 12.9349 14.3567C16.8895 12.9341 20.8443 11.5117 24.7987 10.0884C25.5568 9.81552 26.1458 10.1939 26.0748 10.9559C26.0281 11.4581 25.8877 11.9538 25.7752 12.4497C24.8989 16.3091 24.0191 20.1678 23.1405 24.0268C23.1388 24.0342 23.1382 24.0419 23.1364 24.0493C22.9216 24.9321 22.2334 25.1734 21.4488 24.6353C20.0866 23.7011 18.7279 22.7626 17.3676 21.8261C17.3032 21.7819 17.2367 21.7403 17.1639 21.6927ZM14.1541 22.9081C14.1752 22.8175 14.1899 22.7757 14.1942 22.733C14.2807 21.8651 14.371 20.9976 14.4476 20.1289C14.4646 19.9361 14.5263 19.7938 14.6863 19.6599C16.7505 17.9329 18.8084 16.1993 20.8678 14.4674C21.4537 13.9747 22.0419 13.4845 22.6221 12.9861C22.683 12.9338 22.6962 12.8332 22.7316 12.7551C22.642 12.7314 22.5416 12.6714 22.465 12.6913C22.2882 12.7373 22.11 12.8028 21.9549 12.8937C18.8928 14.6888 15.8347 16.4897 12.7726 18.2847C12.6168 18.376 12.5723 18.4511 12.6348 18.6261C13.1196 19.9836 13.5905 21.3455 14.0664 22.7059C14.085 22.7592 14.1113 22.8101 14.1541 22.9081Z"></path>
  </symbol>
  <symbol xmlns="http://www.w3.org/2000/svg" viewBox="0 0 28 30" id="viber">
    <path fill-rule="evenodd" clip-rule="evenodd" d="M14.4535 0.0208369C21.0197 0.0495884 23.9676 2.16587 24.6971 2.83152C27.1194 4.90772 28.4599 9.51406 27.5564 16.7965C26.7593 23.231 22.2247 24.371 20.7028 24.7537C20.5536 24.7912 20.4333 24.8214 20.3484 24.8486C19.9369 24.9811 16.3142 25.8772 11.6039 25.4851C11.0841 26.0828 10.3942 26.8647 9.89471 27.3971C9.74415 27.5575 9.60318 27.716 9.46844 27.8675C8.78874 28.6318 8.26748 29.2179 7.47193 28.9736C6.68386 28.7323 6.72791 27.5487 6.72791 27.5487L6.73232 24.6252H6.72571C-0.161613 22.7093 -0.0607366 15.6434 0.0172331 11.873C0.0952028 8.10263 0.834373 5.0615 2.93559 2.98311C6.71029 -0.44093 14.4535 0.0208369 14.4535 0.0208369ZM14.3321 2.07015C19.8864 2.09411 22.5484 3.74819 23.1651 4.30231C25.2144 6.03742 26.2584 10.1894 25.495 16.2721C24.83 21.5839 21.2268 22.4147 19.9253 22.7148C19.7809 22.748 19.6648 22.7748 19.5843 22.8004C19.242 22.9111 16.0593 23.6922 12.0591 23.4338C12.0591 23.4338 9.07773 26.9907 8.1465 27.9156C8.00113 28.0589 7.83022 28.1173 7.71612 28.0898C7.55754 28.0511 7.51349 27.8633 7.51349 27.5889C7.51613 27.1964 7.53904 22.7307 7.53904 22.7307C1.90864 21.1838 2.03938 15.5104 2.11359 12.2899C2.11614 12.1792 2.11863 12.0714 2.12081 11.9668C2.18644 8.81804 2.78509 6.23781 4.5621 4.5027C7.75489 1.64279 14.3321 2.07015 14.3321 2.07015Z"></path>
    <path fill-rule="evenodd" clip-rule="evenodd" d="M14.5669 9.41989C14.5776 9.21735 14.7523 9.06172 14.9571 9.07229C15.7234 9.11182 16.3609 9.3412 16.815 9.80547C17.2673 10.268 17.489 10.9141 17.5279 11.69C17.5381 11.8926 17.3803 12.0649 17.1754 12.075C16.9706 12.085 16.7963 11.929 16.7861 11.7264C16.7528 11.0622 16.5685 10.61 16.2811 10.3161C15.9954 10.024 15.5594 9.83883 14.9184 9.80576C14.7136 9.79519 14.5562 9.62243 14.5669 9.41989Z"></path>
    <path fill-rule="evenodd" clip-rule="evenodd" d="M14.0039 7.44152C14.0189 7.23924 14.1969 7.08727 14.4014 7.10207C15.9608 7.21493 17.216 7.74187 18.1303 8.72884L18.1304 8.72898C19.0348 9.70624 19.4646 10.922 19.4334 12.3479C19.429 12.5507 19.2592 12.7115 19.0541 12.7071C18.8491 12.7027 18.6865 12.5348 18.6909 12.332C18.7184 11.0745 18.3445 10.0482 17.5826 9.22484C16.8229 8.40491 15.7611 7.93691 14.3472 7.83458C14.1426 7.81978 13.989 7.6438 14.0039 7.44152Z"></path>
    <path fill-rule="evenodd" clip-rule="evenodd" d="M13.3477 5.56048C13.3491 5.35766 13.5165 5.1944 13.7216 5.19581C15.8766 5.21065 17.6982 5.92015 19.1608 7.33011C20.6356 8.75186 21.3649 10.6874 21.3834 13.0914C21.3849 13.2942 21.2199 13.4599 21.0149 13.4614C20.8098 13.463 20.6423 13.2998 20.6407 13.097C20.6234 10.8444 19.9457 9.11252 18.6423 7.85603C17.3268 6.58774 15.6933 5.94388 13.7164 5.93026C13.5113 5.92885 13.3462 5.76329 13.3477 5.56048Z"></path>
    <path d="M15.0106 16.6272C15.0106 16.6272 15.5326 16.6708 15.8137 16.3284L16.3617 15.6466C16.626 15.3086 17.2638 15.0929 17.8885 15.4371C18.3565 15.7011 18.811 15.9881 19.2501 16.297C19.6646 16.5985 20.5134 17.299 20.5161 17.299C20.9205 17.6366 21.0138 18.1323 20.7385 18.6551C20.7385 18.6581 20.7363 18.6634 20.7363 18.666C20.4331 19.1858 20.0481 19.6546 19.5959 20.0548C19.5906 20.0574 19.5906 20.06 19.5857 20.0626C19.1928 20.3873 18.8068 20.5718 18.4276 20.6163C18.3718 20.6259 18.3151 20.6294 18.2585 20.6267C18.0913 20.6283 17.925 20.603 17.766 20.5518L17.7537 20.5339C17.1695 20.371 16.1943 19.9633 14.5701 19.0772C13.6302 18.5705 12.7355 17.986 11.8954 17.3299C11.4743 17.0012 11.0726 16.649 10.6923 16.2748L10.6518 16.2347L10.6113 16.1946L10.5708 16.1546C10.5571 16.1415 10.5439 16.128 10.5302 16.1145C10.1519 15.7384 9.79565 15.3412 9.46332 14.9248C8.8 14.0941 8.20894 13.2093 7.69645 12.2801C6.80046 10.6735 6.38814 9.70987 6.22339 9.13136L6.20533 9.11916C6.15369 8.96193 6.12825 8.79743 6.13001 8.63212C6.12692 8.57616 6.13032 8.52004 6.14014 8.46484C6.18742 8.09049 6.37434 7.70845 6.7009 7.3187C6.70355 7.31391 6.70619 7.31391 6.70883 7.30868C7.11335 6.86143 7.58742 6.48084 8.11317 6.18128C8.11581 6.18128 8.1211 6.17866 8.12418 6.17866C8.65279 5.90639 9.15409 5.99875 9.49504 6.39648C9.49768 6.39909 10.2047 7.23855 10.5082 7.64847C10.8206 8.08312 11.1108 8.53296 11.3778 8.99631C11.7258 9.6136 11.5077 10.2457 11.1659 10.5062L10.4765 11.0481C10.1285 11.3261 10.1743 11.8423 10.1743 11.8423C10.1743 11.8423 11.1954 15.6641 15.0106 16.6272Z"></path>
  </symbol>
  <symbol xmlns="http://www.w3.org/2000/svg" viewBox="0 0 34 34" id="vk">
    <path d="M1.15123e-06 16.8017C-0.00339152 25.9922 7.79588 33.6146 16.8822 33.6179H16.8895C26.1975 33.6179 33.7747 26.0793 33.7787 16.8154C33.7802 12.3254 32.025 8.10372 28.8365 4.92773C25.6475 1.75186 21.4072 0.00206266 16.8895 7.62939e-06C7.57984 7.62939e-06 0.00376666 7.53738 1.15123e-06 16.8017ZM2.85164 16.8029C2.85462 9.10259 9.15158 2.83807 16.8948 2.83807C20.6445 2.83958 24.1686 4.29412 26.8193 6.93381C29.4697 9.57332 30.9281 13.0823 30.927 16.8142C30.9237 24.5147 24.6265 30.7802 16.8895 30.7802H16.8841C9.31098 30.7762 2.84812 24.4547 2.85164 16.8029Z"></path>
    <path fill-rule="evenodd" clip-rule="evenodd" d="M16.5267 24.2148H17.8303C17.8303 24.2148 18.2237 24.1723 18.4247 23.9589C18.6102 23.7623 18.6041 23.3941 18.6041 23.3941C18.6041 23.3941 18.5787 21.67 19.3902 21.4156C20.1902 21.1651 21.2181 23.0821 22.3068 23.8192C23.1307 24.3772 23.7567 24.255 23.7567 24.255L26.6687 24.2148C26.6687 24.2148 28.1917 24.1222 27.4695 22.9416C27.4102 22.8452 27.0483 22.0678 25.3043 20.4712C23.478 18.8002 23.7228 19.0705 25.9226 16.1794C27.2616 14.4196 27.7975 13.3446 27.6296 12.8845C27.4703 12.4457 26.4855 12.5619 26.4855 12.5619L23.2062 12.5816C23.2062 12.5816 22.9629 12.549 22.7827 12.6553C22.6071 12.7593 22.494 13.0022 22.494 13.0022C22.494 13.0022 21.9742 14.3642 21.2828 15.5227C19.8229 17.9674 19.2385 18.0964 18.9998 17.9446C18.4447 17.5908 18.5833 16.5241 18.5833 15.7657C18.5833 13.3962 18.9483 12.4085 17.8741 12.1527C17.5177 12.0684 17.2551 12.0122 16.3435 12.0031C15.1739 11.991 14.1837 12.0062 13.6232 12.2772C13.2497 12.4571 12.9618 12.8587 13.1373 12.8815C13.3537 12.9104 13.8449 13.0121 14.1052 13.3613C14.4409 13.8123 14.4293 14.8243 14.4293 14.8243C14.4293 14.8243 14.6226 17.6128 13.9781 17.9598C13.5361 18.1966 12.9302 17.7123 11.6282 15.4939C10.9614 14.3581 10.4578 13.1024 10.4578 13.1024C10.4578 13.1024 10.3608 12.8678 10.1876 12.7418C9.97736 12.59 9.684 12.5414 9.684 12.5414L6.56794 12.5619C6.56794 12.5619 6.10057 12.5748 5.92887 12.7752C5.77565 12.9536 5.91655 13.3226 5.91655 13.3226C5.91655 13.3226 8.35581 18.9498 11.1177 21.7854C13.6509 24.3856 16.5267 24.2148 16.5267 24.2148Z"></path>
  </symbol>
  <symbol xmlns="http://www.w3.org/2000/svg" viewBox="0 0 29 28" id="whatsapp">
    <path d="M0.375292 13.8307C0.374386 16.2685 1.01848 18.6482 2.24273 20.7459L0.257812 27.9131L7.67479 25.9899C9.71827 27.0919 12.0191 27.6728 14.3605 27.6736H14.3666C22.0774 27.6736 28.3544 21.468 28.3576 13.842C28.359 10.1459 26.9049 6.67068 24.2635 4.05625C21.6218 1.44192 18.109 0.00150681 14.3666 -0.000185013C6.65446 -0.000185013 0.378361 6.20448 0.375241 13.8307H0.375292ZM4.79215 20.3847L4.51528 19.9498C3.35116 18.1193 2.7366 16.0039 2.7376 13.8317C2.74007 7.49294 7.95649 2.33607 14.371 2.33607C17.4773 2.33731 20.3966 3.53467 22.5925 5.70762C24.788 7.88043 25.9962 10.769 25.9953 13.841C25.9926 20.18 20.776 25.3376 14.3666 25.3376H14.3621C12.275 25.3365 10.2283 24.7824 8.44326 23.7348L8.01842 23.4858L3.61706 24.627L4.79215 20.3847Z"></path>
    <path fill-rule="evenodd" clip-rule="evenodd" d="M10.8693 8.04879C10.6074 7.47312 10.3318 7.46153 10.0826 7.45143C9.87886 7.44282 9.64556 7.44337 9.41266 7.44337C9.17962 7.44337 8.80082 7.52994 8.48053 7.87589C8.16004 8.22183 7.25684 9.05812 7.25684 10.759C7.25684 12.4602 8.50966 14.1037 8.68429 14.3346C8.85908 14.5651 11.1028 18.1671 14.6561 19.5529C17.6092 20.7045 18.2101 20.4754 18.8511 20.4178C19.4921 20.3602 20.9194 19.5817 21.2107 18.7744C21.5021 17.9672 21.5021 17.2754 21.4147 17.1307C21.3273 16.9866 21.0942 16.9002 20.7446 16.7273C20.3949 16.5544 18.6763 15.7179 18.3558 15.6027C18.0353 15.4875 17.8022 15.4299 17.5691 15.776C17.336 16.1218 16.6665 16.9002 16.4625 17.1308C16.2585 17.3618 16.0546 17.3906 15.705 17.2177C15.3553 17.0443 14.2294 16.6796 12.8937 15.5019C11.8545 14.5856 11.1529 13.454 10.9488 13.1079C10.7449 12.7621 10.9271 12.5748 11.1024 12.4025C11.2594 12.2476 11.4521 11.9989 11.6269 11.797C11.8013 11.5952 11.8596 11.4511 11.9761 11.2206C12.0926 10.9897 12.0344 10.7878 11.947 10.615C11.8596 10.4421 11.1802 8.73232 10.8693 8.04879Z"></path>
  </symbol>
  <symbol xmlns="http://www.w3.org/2000/svg" viewBox="0 0 34 34" id="ok">
    <path d="M1.15123e-06 16.8017C-0.00339152 25.9922 7.79588 33.6146 16.8822 33.6179H16.8895C26.1975 33.6179 33.7747 26.0793 33.7787 16.8154C33.7802 12.3254 32.025 8.10372 28.8365 4.92773C25.6475 1.75186 21.4072 0.00206266 16.8895 7.62939e-06C7.57984 7.62939e-06 0.00376666 7.53738 1.15123e-06 16.8017ZM2.85164 16.8029C2.85462 9.10259 9.15158 2.83807 16.8948 2.83807C20.6445 2.83958 24.1686 4.29412 26.8193 6.93381C29.4697 9.57332 30.9281 13.0823 30.927 16.8142C30.9237 24.5147 24.6265 30.7802 16.8895 30.7802H16.8841C9.31098 30.7762 2.84812 24.4547 2.85164 16.8029Z"/>
	<path d="M17.3718 9.32753C18.6683 9.32753 19.7227 10.3819 19.7227 11.6784C19.7227 12.9737 18.6683 14.0283 17.3718 14.0283C16.0766 14.0283 15.021 12.9737 15.021 11.6784C15.021 10.3819 16.0766 9.32753 17.3718 9.32753ZM17.3718 17.3545C20.5037 17.3545 23.0496 14.8087 23.0496 11.6784C23.0496 8.54691 20.5037 6.00003 17.3718 6.00003C14.2407 6.00003 11.6941 8.54691 11.6941 11.6784C11.6941 14.8085 14.2407 17.3545 17.3718 17.3545ZM19.669 21.9864C20.8248 21.723 21.9396 21.2658 22.9661 20.6208C23.743 20.1312 23.9772 19.104 23.4876 18.327C22.9986 17.5483 21.9721 17.3142 21.1938 17.8038C18.8682 19.2667 15.8737 19.266 13.5493 17.8038C12.771 17.3142 11.7446 17.5484 11.2561 18.327C10.7665 19.1047 11 20.1312 11.7771 20.6208C12.8035 21.265 13.9182 21.723 15.0741 21.9864L11.8997 25.1607C11.2507 25.8103 11.2507 26.8633 11.9003 27.5128C12.2255 27.8373 12.6508 27.9999 13.0761 27.9999C13.5021 27.9999 13.9281 27.8374 14.2532 27.5128L17.3711 24.3935L20.4917 27.5128C21.1407 28.1624 22.1937 28.1624 22.8432 27.5128C23.4935 26.8633 23.4935 25.8095 22.8432 25.1607C22.8433 25.1607 19.669 21.9864 19.669 21.9864Z"/>
  </symbol>
  <symbol xmlns="http://www.w3.org/2000/svg" viewBox="0 0 31 31" id="dzen">
	<path d="M10.6792 11.9038C7.19597 14.9281 1 13.9808 1 13.9808V15.0192C1 15.0192 7.94092 14.3052 11.1887 17.6154C14.4364 20.9256 13.7358 28 13.7358 28H14.7547C14.7547 28 14.1065 20.9782 17.3019 17.6154C20.6352 14.1075 28 15.0192 28 15.0192V13.9808C28 13.9808 20.8752 14.6124 17.3019 11.3846C13.5678 8.01158 14.7547 1 14.7547 1H13.7358C13.7358 1 14.4775 8.60607 10.6792 11.9038Z"/>
	<path d="M9.7988e-07 14.4136C-0.000929522 16.9541 0.660864 19.434 1.91875 21.62C3.17663 23.806 5.40042 25.9364 7.50005 27.0849C9.59967 28.2334 11.9637 28.8387 14.3695 28.8396H14.3757C22.2984 28.8396 28.7478 22.3725 28.7511 14.4253C28.7525 10.5735 27.2585 6.95195 24.5446 4.22739C21.8302 1.50293 18.221 0.00184686 14.3757 8.39233e-05C6.45168 8.39233e-05 0.00320604 6.46611 9.7988e-07 14.4136ZM4.53821 21.2436C4.42282 21.0694 4.25374 20.7905 4.25374 20.7905C3.05763 18.8829 2.42618 16.6783 2.42721 14.4146C2.42975 7.80884 7.78949 2.43475 14.3802 2.43475C17.5718 2.43604 20.5714 3.68384 22.8276 5.94832C25.0835 8.21266 26.3249 11.2229 26.3239 14.4244C26.3211 21.0303 20.9612 26.4052 14.3757 26.4052H14.3711C12.2267 26.4041 10.1238 25.8266 8.28963 24.7349C8.28963 24.7349 8.02119 24.5807 7.85312 24.4754C6.32084 23.5158 5.53658 22.7509 4.53821 21.2436Z"/>
  </symbol>

</svg>