<svg width="61" height="65" viewBox="0 0 61 65" fill="none" xmlns="http://www.w3.org/2000/svg">
<path fill-rule="evenodd" clip-rule="evenodd" d="M30.5 0.366211C22.3828 6.35126 12.3911 9.94083 1.5681 10.0916C1.1008 12.8378 0.857422 15.6602 0.857422 18.5395C0.857422 38.9041 13.0321 56.4251 30.5 64.2212C47.9679 56.4251 60.1426 38.9041 60.1426 18.5395C60.1426 15.6602 59.8992 12.8378 59.4319 10.0916C48.6089 9.94083 38.6172 6.35126 30.5 0.366211ZM30.4997 6.14307C23.8513 11.0452 15.6675 13.9853 6.80281 14.1088C6.42005 16.3581 6.2207 18.6699 6.2207 21.0283C6.2207 37.7083 16.1926 52.0592 30.5 58.4448C44.8074 52.0592 54.7793 37.7083 54.7793 21.0283C54.7793 18.6699 54.5799 16.3581 54.1972 14.1088C45.3323 13.9854 37.1483 11.0453 30.4997 6.14307Z" fill="#6D0F0F"/>
<path d="M18.5696 28.5466L26.4592 41.2347C27.246 42.5 29.0904 42.4916 29.8656 41.2191L42.4316 20.5923" stroke="#6D0F0F" stroke-width="3"/>
</svg>
