<svg width="67" height="66" viewBox="0 0 67 66" fill="none" xmlns="http://www.w3.org/2000/svg">
<path d="M25.4422 1.07404C21.3261 2.88583 19.1174 6.9862 19.1174 12.9937C19.1174 15.5684 18.7158 18.0477 18.1135 18.3337C16.3064 19.3827 17.0092 22.148 20.6233 28.6323C25.8437 37.9774 25.7434 38.2634 14.8005 43.0313C6.56829 46.6549 5.26319 47.6085 3.75729 50.8506C1.84982 54.951 -0.0576422 63.6285 0.645109 64.7728C0.946288 65.2496 15.9048 65.5356 33.8752 65.5356H66.5029L65.8002 60.1003C65.0974 54.5695 62.5876 48.6574 60.0778 46.7502C59.375 46.1781 55.2589 44.3663 50.942 42.6499C46.6251 40.9334 42.8102 38.8356 42.4086 38.0727C42.1074 37.2145 43.4125 33.6863 45.6212 30.0627C49.2353 23.6737 49.3357 23.3877 48.633 16.1405C47.9302 7.84441 46.2235 3.64869 43.0109 1.74154C39.7984 -0.165604 29.2571 -0.547035 25.4422 1.07404ZM42.509 18.9059C44.0149 19.5734 45.2196 20.7177 45.2196 21.5759C45.2196 22.7202 45.5208 22.6248 46.8259 21.0991C48.3318 19.3827 48.3318 19.3827 47.8298 21.7666C47.0267 25.4855 40.5011 35.3073 37.8909 36.6424C34.8791 38.2634 31.0642 38.1681 28.454 36.4516C25.8437 34.7352 19.1174 23.483 19.1174 21.0037C19.2178 19.5734 19.4186 19.7641 20.5229 21.6712L21.9284 23.9598L22.33 21.7666C22.9324 17.3802 35.0799 15.6637 42.509 18.9059ZM31.7669 39.4077C33.072 39.7891 35.5819 39.5031 37.2885 38.8356C41.0031 37.3099 41.6054 37.7866 40.1999 41.2195C37.9913 46.7502 32.7709 47.9899 28.6548 44.0802C25.7434 41.4102 25.141 37.3099 27.7512 38.2634C28.6548 38.5495 30.4618 39.1216 31.7669 39.4077ZM25.9441 43.0313C28.9559 49.2295 36.6862 49.7063 40.8023 43.8895C42.007 42.1731 43.2117 41.1241 43.6133 41.4102C43.9145 41.7917 44.2157 44.557 44.2157 47.6085V53.1392H33.6744H23.1331V46.941C23.1331 40.4566 24.0367 39.1216 25.9441 43.0313ZM17.1096 48.8481C17.1096 51.232 16.708 53.1392 16.206 53.1392C15.6037 53.1392 15.1017 55.4278 14.9009 58.0978L14.5997 63.1517L8.37537 63.4378C4.86161 63.6285 2.05061 63.3424 2.05061 62.961C2.05061 60.8631 5.26319 50.7552 6.26712 49.5156C7.67262 47.9899 14.0978 44.6524 15.9048 44.557C16.708 44.557 17.1096 45.9874 17.1096 48.8481ZM57.5679 47.1317C60.7805 48.6574 62.9892 53.0438 63.9931 59.3374L64.5954 63.6285H58.3711H52.2471V58.3838C52.2471 55.5231 51.8455 53.1392 51.2432 53.1392C50.7412 53.1392 50.2392 51.1367 50.2392 48.7527C50.2392 44.7477 50.3396 44.4617 52.5483 45.1292C53.753 45.4152 56.062 46.3688 57.5679 47.1317Z" fill="#6D0F0F"/>
<path d="M43.1348 55.4624H35.1387V63.959C36.8056 64.9586 47.7345 65.0252 49.4671 63.959C49.4671 63.959 49.8003 59.9606 49.4671 58.6278" stroke="#FFF6F6"/>
</svg>
