<svg width="0" height="0" class="hidden">
  <symbol fill="none" xmlns="http://www.w3.org/2000/svg" viewBox="0 0 35 34" id="left">
    <path d="M21.0864 20.8125L8.6373 17.1431C10.8385 15.9874 18.7396 11.3728 20.6624 10.2478C20.9303 10.0911 21.2484 10.0652 21.5332 10.1887C23.7542 11.152 33.464 15.6453 32.5388 20.2001C31.1227 27.1718 24.9585 32.4189 17.5688 32.4189C9.13221 32.4189 2.29297 25.5797 2.29297 17.1431C2.29297 8.70643 9.13221 1.86719 17.5688 1.86719C20.6472 1.86719 23.5129 2.77774 25.9112 4.34419" stroke-width="3" stroke-linecap="round"></path>
  </symbol>
  <symbol fill="none" xmlns="http://www.w3.org/2000/svg" viewBox="0 0 34 34" id="right">
    <path d="M13.2066 20.8125L25.6557 17.1431C23.4544 15.9874 15.5533 11.3728 13.6306 10.2478C13.3626 10.0911 13.0446 10.0652 12.7598 10.1887C10.5388 11.152 0.829017 15.6453 1.7542 20.2001C3.17031 27.1718 9.33445 32.4189 16.7241 32.4189C25.1608 32.4189 32 25.5797 32 17.1431C32 8.70643 25.1608 1.86719 16.7241 1.86719C12.9046 1.86719 9.4124 3.26903 6.7341 5.58627" stroke-width="3" stroke-linecap="round"></path>
  </symbol>
</svg>