<?xml version="1.0" standalone="no"?>
<!DOCTYPE svg PUBLIC "-//W3C//DTD SVG 20010904//EN"
 "http://www.w3.org/TR/2001/REC-SVG-20010904/DTD/svg10.dtd">
<svg version="1.0" xmlns="http://www.w3.org/2000/svg"
 width="66.000000pt" height="66.000000pt" viewBox="0 0 66.000000 66.000000"
 preserveAspectRatio="xMidYMid meet">

<g transform="translate(0.000000,66.000000) scale(0.100000,-0.100000)"
fill="#6D0F0F" stroke="none">
<path d="M175 653 c-16 -3 -33 -10 -37 -16 -13 -21 -9 -272 4 -285 17 -17 409
-17 426 0 17 17 17 284 0 295 -14 9 -345 14 -393 6z m375 -153 l0 -130 -195 0
-195 0 0 130 0 130 195 0 195 0 0 -130z"/>
<path d="M274 585 c-14 -35 3 -45 79 -45 54 0 78 4 87 15 25 30 -5 45 -87 45
-56 0 -75 -4 -79 -15z m146 -15 c0 -6 -28 -10 -65 -10 -37 0 -65 4 -65 10 0 6
28 10 65 10 37 0 65 -4 65 -10z"/>
<path d="M82 262 c-34 -16 -68 -34 -74 -40 -20 -20 14 -14 76 13 75 33 135 33
174 0 34 -28 73 -45 107 -45 13 0 36 -5 51 -10 21 -8 24 -14 16 -22 -12 -12
-147 -14 -183 -3 -13 4 -19 2 -19 -8 0 -18 43 -27 129 -27 64 0 69 2 148 55
81 54 123 68 123 41 0 -20 -257 -186 -288 -186 -14 0 -55 15 -91 34 -96 49
-106 51 -147 25 -44 -27 -31 -48 13 -22 31 17 31 17 122 -26 70 -33 97 -42
118 -36 40 10 279 169 293 195 17 31 -14 64 -52 56 -15 -3 -28 0 -30 6 -4 10
-41 17 -110 20 -15 0 -50 -14 -78 -32 -55 -36 -65 -35 -121 11 -42 33 -103 34
-177 1z m398 -6 c0 -11 -72 -47 -87 -44 -14 3 -10 9 17 26 31 19 70 29 70 18z
m70 -15 c0 -10 -75 -61 -90 -61 -21 0 -9 26 23 47 33 22 67 30 67 14z"/>
</g>
</svg>
