<svg width="284" height="74" viewBox="0 0 284 74" fill="none" xmlns="http://www.w3.org/2000/svg">
<path d="M130.679 63.6157C141.882 79.5243 152.48 71.2933 153.791 64.8949C153.957 64.0889 153.588 63.2938 152.992 62.7265C148.536 58.4848 144.733 54.8613 141.484 54.1209C139.048 53.5658 134.886 53.0143 133.858 50.7371C130.944 44.2777 126.001 34.0826 122.504 26.9794C121.793 25.5361 123.247 24.0691 124.419 22.9676V22.9676C124.824 22.5871 124.485 22.1843 124.131 21.7553C120.145 16.915 118.899 11.0932 118.73 8.15101C118.705 7.72395 118.911 7.32366 119.255 7.06851V7.06851C120.261 6.32092 121.732 7.24888 121.657 8.5C121.06 18.4403 128.037 23.1937 130.679 20.6081C133.986 17.3701 127.276 1.72569 123.313 1.03573C120.231 0.499379 116.223 6.13484 114.566 9.01921C109.041 21.5867 121.778 48.5929 128.837 60.5251L130.679 63.6157ZM130.679 63.6157C133.456 65.9463 139.218 69.3316 144.569 68.7343C146.92 68.472 146.654 65.6238 144.576 64.4947C141.505 62.8257 138.668 60.589 138.902 58.3114C138.927 58.069 138.965 57.8446 138.965 57.6009C138.965 53.8607 138.965 25.7696 138.965 26.0162C138.965 26.2091 163.161 26.1162 177.584 26.0331C178.526 26.0277 178.951 27.2076 178.224 27.8059L162.261 40.9443C161.161 41.849 159.578 41.8565 158.47 40.9623L142.337 27.939C142.24 27.8613 142.12 27.819 141.997 27.819V27.819C141.499 27.819 141.265 28.4332 141.637 28.764L153.172 39.0483C154.368 40.1145 154.515 41.9322 153.506 43.1768L147.08 51.1031C146.675 51.6023 146.779 52.34 147.306 52.7082V52.7082C147.791 53.0474 148.457 52.9452 148.818 52.4761L154.408 45.2136C154.976 44.4757 155.854 44.0434 156.785 44.0434H163.935C164.748 44.0434 165.526 44.3729 166.091 44.9565L176.972 56.194C177.103 56.3288 177.282 56.4048 177.47 56.4048V56.4048C178.068 56.4048 178.385 55.6969 177.986 55.2507L167.299 43.2941C166.159 42.0188 166.314 40.0501 167.64 38.9695L179.688 29.1491C180.341 28.6166 181.32 29.0814 181.32 29.9242V54.95C181.32 56.6069 179.976 57.95 178.32 57.95H156.207C155.621 57.95 154.808 58.039 154.753 58.6227C154.681 59.4013 156.761 60.2703 165.207 60.5251C175.046 60.8219 188.984 62.9412 188.984 57.3394C188.984 36.4689 182.434 43.2038 282 40.7826M130.679 63.6157C130.679 63.6157 116.809 40.7826 112.233 40.9532H79.4527L2 40.7602" stroke="#AB0E0F" stroke-width="2" stroke-linecap="square"/>
</svg>
