<svg width="1441" height="92" viewBox="0 0 1441 92" fill="none" xmlns="http://www.w3.org/2000/svg">
<path d="M460.402 33.2605L452.049 38.422M460.402 33.2605V27.7393M460.402 33.2605V24.4579M452.049 38.422L443.597 33.2605V27.7393M452.049 38.422V32.7874M460.402 27.7393L452.049 32.7874M460.402 27.7393V26.0589M452.049 32.7874L443.597 27.7393M443.597 27.7393V26.0589M460.402 26.0589L452.049 31.1813L443.597 26.0589M460.402 26.0589V24.4579M443.597 26.0589V23.8985M443.597 23.8985L451.985 18.7688L460.402 23.8985M443.597 23.8985V17.8974M460.402 23.8985V22.5252M460.402 23.8985V24.4579M460.402 17.8974V16.6972L451.985 11.5281L443.597 16.6972V17.8974M460.402 17.8974L451.985 13.2974L443.597 17.8974M460.402 17.8974V22.3891M460.402 22.3891V22.5252M460.402 22.3891C459.749 22.2536 459.317 22.766 459.317 23.0696C459.317 23.6611 459.317 24.4579 460.402 24.4579M460.402 22.3891C460.86 22.3891 461.206 22.7968 461.206 23.3463C461.206 24.0809 460.869 24.2945 460.402 24.4579M460.402 22.5252V24.4579" stroke="#AB0E0F" stroke-width="0.7"/>
<path d="M1859.5 85.0006L642.022 87.506H550.073C544.088 87.506 534.792 85.5238 534.792 78.5115C534.792 70.044 528.807 59.2751 522.338 58.7112C518.622 58.3873 509.004 57.8278 500.256 58.1812C491.507 58.5345 489.721 49.319 489.922 44.6671C489.98 33.6212 490.169 10.4549 490.451 6.15619C490.734 1.85747 488.803 0.890781 487.802 0.944778C463.217 0.915335 413.748 0.874116 412.546 0.944778C411.345 1.01544 410.692 2.38749 410.515 3.06467C410.78 15.2539 411.275 40.7099 411.133 45.0203C410.992 49.3307 415.255 50.5261 417.404 50.585H534.792V69.6637C511.856 69.4576 465.746 69.0631 464.794 69.1338C463.841 69.2044 463.424 68.4566 463.335 68.0738C461.598 65.693 458.194 60.6285 458.477 59.4177C458.759 58.2069 457.122 57.7944 456.269 57.7395C449.673 57.8278 436.289 57.9515 435.512 57.7395C434.54 57.4745 433.642 58.5345 432.694 59.4177C431.936 60.1244 428.663 68.8546 427.12 73.1314C426.944 73.6243 426.449 74.6101 425.884 74.6101C425.177 74.6101 411.045 74.3451 408.13 74.6101C405.798 74.8221 404.98 72.6963 404.862 71.607V6.77444C404.832 6.06782 404.968 4.72524 405.745 5.00788C405.814 5.03297 406.311 5.05128 407.18 5.06359C444.263 5.00788 448.438 6.15619 460.819 10.9836M443.287 32.7196C438.244 32.3117 433.932 17.0645 440.937 12.9955C444.053 11.1856 448.438 4.38878 489.16 4.38878C499.988 4.24244 521.201 3.93477 524.361 4.28597C528.312 4.72497 527.79 4.62956 527.873 5.60311C528.024 7.36636 526.803 24.5099 532.373 19.4315C539.082 13.3144 539.507 17.1268 535.007 23.8215C530.507 30.5162 530.651 36.2185 540.165 27.8823C547.628 21.3435 546.503 28.2117 542.69 33.4795C539.159 38.3558 541.012 38.772 543.677 38.089C544.994 37.65 548.484 36.8598 551.909 37.211C556.189 37.65 554.54 40.9425 552.786 40.9425C552.348 40.9425 529.19 41.162 527.873 40.9425C526.82 40.7669 526.41 39.5523 526.337 38.967V18.0048C526.447 16.2854 526.908 12.7149 527.873 12.1881C528.839 11.6613 529.007 11.4469 529.959 11.5296C535.007 11.9686 545.111 12.1881 546.001 12.1881C547.103 12.1881 547.413 12.4461 547.628 12.8466L558.055 37.211C558.055 37.211 558.168 44.8676 558.055 44.9959C557.941 45.1242 514.598 45.1129 513.716 45.1129C511.192 45.1129 511.192 43.9519 511.192 41.8204C511.338 32.1991 511.192 12.7238 511.192 11.5296C511.192 10.2033 511.776 8.51607 514.813 8.52181C524.922 8.54095 546.001 8.52181 546.001 8.52181C546.001 8.52181 549.931 8.20634 550.306 9.26812C554.573 21.3413 563.727 42.8625 566.206 44.2821C568.555 45.6274 577.75 46.4031 577.75 48.6123V54.1573C577.776 57.1565 577.813 63.6205 577.75 65.4828C577.671 67.8107 578.634 68.9093 579.398 68.9093C580.209 68.9093 581.673 68.9093 582.772 68.9093C583.243 68.9093 583.295 65.2998 582.772 63.6258C582.366 62.3276 579.762 62.475 579.762 63.3904V72.2486H569.635C568.011 72.2486 567.37 72.5673 567.37 71.449C567.37 67.3117 565.547 62.5458 562.04 59.9893C558.348 57.2988 552.116 55.8257 546.449 57.7241C539.686 59.9896 537.584 70.4636 537.921 75.4467C538.164 79.0486 541.519 82.9311 546.449 85.1741C548.887 86.2832 557.509 87.1107 562.04 81.9761C564.127 79.6108 566.497 75.885 565.104 70.2498C563.572 64.0467 557.74 62.437 555.006 63.3904C552.866 64.1365 551.482 64.6077 549.568 66.7053C544.777 71.9563 546.503 76.7081 548.887 77.9427C552.678 79.906 555.964 79.08 557.509 75.4467C558.781 72.4556 558.822 67.4515 551.113 65.3195C547.316 64.2693 543.559 68.8778 543.559 72.529C543.559 76.1801 544.194 80.966 548.448 81.9761C554.068 83.3106 558.265 80.6975 559.757 78.8452C561.445 76.75 563.045 72.2486 560.676 67.7956C553.509 54.3236 541.226 66.7053 541.519 72.2486C541.596 73.7238 540.886 73.7238 540.319 73.7238H488.957H464.794C464.794 85.8666 455.308 90.8987 446.197 90.8987C436.037 90.8987 434.078 87.4635 431.614 83.3767C428.611 78.3968 430.694 68.8151 433.642 65.1955C437.244 60.7715 445.641 59.9979 450.225 60.9312C457.136 62.3388 460.174 66.537 460.174 73.1314C460.174 79.9835 455.519 86.2589 450.81 87.4635C441.345 89.8848 437.996 81.8113 437.996 76.8685C437.996 72.1296 441.313 68.5461 447.263 70.2886C453.626 72.1519 452.781 80.2806 447.974 81.7781C441.822 83.6945 436.669 82.5553 434.773 76.8685C433.763 73.8377 433.116 63.8925 444.184 63.8925C457.014 63.8925 455.29 77.8306 454.37 80.712C452.586 86.3041 448.674 87.4635 439.564 87.4635H317.326L-550.089 85.1741M439.152 14.0346C433.932 17.6882 432.437 22.9227 433.932 31.9258C435.152 39.2734 440.295 45.9535 453.329 44.6671C466.362 43.3806 469.147 30.3703 469.147 28.1036C469.147 18.1609 467.132 13.4452 460.819 10.9836M460.819 10.9836C467.122 14.0346 466.009 17.8028 460.819 22.847" stroke="#AB0E0F"/>
</svg>
