<svg width="1440" height="174" viewBox="0 0 1440 174" fill="none" xmlns="http://www.w3.org/2000/svg">
<path d="M1205.63 168.736C1207.48 168.119 1215.68 160.84 1215.94 159.113C1216.78 153.51 1215.3 145.002 1216.91 142.7C1223.27 133.641 1222.58 130.728 1223.27 130.931C1225.81 131.683 1218.99 141.888 1219.91 146.296C1220.5 149.123 1219.64 155.447 1218.53 159.113C1217.64 162.028 1209.05 165.143 1209.05 170.342C1209.05 173.429 1211.02 172.64 1212.92 172.074C1216.32 171.061 1220.03 163.324 1220.68 162.028C1221.33 160.732 1226.54 148.618 1227.14 142.7C1227.37 140.541 1230.01 132.33 1231.24 130.931C1233.26 128.633 1233.64 124.992 1234.04 121.537C1234.51 118.622 1235.41 113.979 1236.09 113.979C1237.12 113.979 1237.35 119.307 1236.73 122.941C1236.44 124.669 1230.38 124.561 1228.76 124.669C1227.14 124.777 1215.05 122.806 1213.03 121.537C1209.03 119.022 1208.7 115.101 1210.77 113.979C1215.73 111.289 1218.77 106.372 1219.71 104.585C1220.46 103.152 1226.28 87.9573 1228.76 88.6051C1231.24 89.253 1230.7 87.0936 1227.79 86.7696C1224.88 86.4457 1224.88 85.9057 1224.88 84.826C1224.88 83.9622 1225.44 77.1464 1224.88 75.972C1223.59 73.2726 1219.98 67.8761 1224.88 63.3389C1229.45 59.1185 1229.02 58.1401 1226.07 54.269C1223.72 51.1973 1218.59 44.733 1216.16 40.7722C1215.55 35.3096 1213.28 29.8889 1210.4 24.7376C1209.01 22.2591 1210.01 21.3338 1210.01 20.2569C1210.01 18.9665 1208.64 18.7452 1206.46 18.7452C1204.43 18.7452 1201.4 18.1692 1199.89 17.1254C1198.8 16.3711 1198.82 17.0927 1199.89 18.7452C1201.24 20.833 1201.15 21.6604 1201.93 21.6604H1205.71C1207.33 21.6604 1208.27 27.5558 1208.18 29.5426C1208.08 32.026 1209.69 38.9368 1211.09 40.7722C1212.21 42.2405 1215.51 49.6619 1217.02 53.1891C1218.74 55.5286 1221.99 60.445 1221.22 61.3952C1220.25 62.5829 1218.09 66.1461 1218.53 68.0897C1218.87 69.6445 1220.47 73.9924 1221.22 75.972C1217.84 75.2881 1211.09 72.7542 1211.09 68.0897C1211.09 62.259 1212.92 56.6443 1215.29 54.9167C1217.66 53.1891 1222.4 40.4481 1222.51 39.0444C1222.62 37.6407 1226.71 35.3731 1228.01 38.0726C1229.3 40.7722 1234.02 42.9881 1235.44 42.7155C1236.62 42.4902 1239.1 45.1934 1239.1 46.7106C1239.1 48.5462 1236.23 55.5672 1232.53 54.9167C1228.84 54.269 1224.65 49.352 1226.07 43.9485C1227.46 38.6489 1226.93 37.9646 1233.82 35.9131C1239.34 34.2719 1242.73 39.7642 1243.74 42.7155C1244.92 46.2 1244.99 52.7788 1251.71 56.3204C1258.43 59.862 1256.23 68.1616 1254.29 71.8688C1254.01 70.6451 1253.09 67.9817 1251.71 67.1179C1250.33 66.2541 1246.59 67.1179 1245.03 65.9302C1243.74 64.9463 1243.52 62.2374 1243.09 60.4234C1242.66 58.6095 1239.02 61.5226 1237.81 59.8836C1236.88 58.6239 1235.29 55.7375 1236.41 54.269C1237.81 52.4333 1248.91 40.8021 1248.91 39.0444C1248.91 37.7241 1249.52 28.3909 1249.98 23.9279C1249.98 21.8609 1247.05 19.1933 1247.51 17.1254C1248.18 14.0816 1249.01 17.7279 1249.98 18.7452C1250.95 19.7624 1251.52 19.9728 1252.57 18.7452C1254.96 15.9567 1251.73 11.2949 1253.43 11.2949C1255.53 13.4313 1257.7 14.9963 1256.99 18.7452C1256.14 23.2221 1251.6 22.3085 1253.43 27.5992C1255.26 32.89 1254.61 38.5778 1254.29 39.4765C1254.02 40.2451 1249.91 47.8625 1248.15 51.7856C1246.98 54.3944 1239.56 57.0829 1243.09 68.3124C1243.65 70.0893 1239.1 73.3275 1239.1 75.972C1239.1 78.2002 1241.8 79.1008 1241.8 80.507C1241.8 83.0375 1234.5 84.0467 1236.41 84.1781C1242.58 84.6024 1253.22 102.778 1253.22 119.81C1253.22 124.669 1253.22 126.85 1236.73 125.856C1235.83 130.104 1234.04 139.008 1234.04 140.649C1234.04 142.7 1237.16 153.822 1238.46 155.334C1239.75 156.845 1238.13 158.141 1236.09 159.113C1233.67 160.259 1233.82 162.994 1235.33 163.864L1239.53 166.563C1239.77 169.319 1240.97 171.658 1242.01 172.074C1244.93 173.239 1245.77 172.711 1245.51 172.074C1244.84 170.477 1243.54 168.383 1243.15 166.563C1242.77 164.767 1244 157.337 1242.77 155.334C1241.7 153.599 1239.64 135.898 1242.77 136.33C1245.89 136.762 1252.03 154.254 1253.22 154.362C1254.4 154.47 1259.14 157.601 1260.65 160.732C1262.16 163.864 1275.41 163.648 1275.95 164.835L1456.2 159.113" stroke="#AB0E0F"/>
<path d="M1162.98 161.478C1161.37 161.205 1158.48 162.492 1156.24 160.047C1154.01 157.603 1159.8 141.295 1162.98 133.446C1161.6 130.825 1160.45 130.028 1158.16 130.369C1155.86 130.711 1153 128.091 1150.47 123.077C1147.95 118.063 1141.29 106.554 1136.24 101.54C1131.19 96.5264 1130.5 99.4582 1130.5 100.629C1130.5 102.342 1130.5 123.874 1129.03 127.065C1127.56 130.256 1129.85 147.462 1130.5 150.425C1131.15 153.387 1135.25 162.864 1133.14 161.478C1131.42 160.345 1126.37 157.262 1129.03 156.92C1131.7 156.578 1134.06 153.615 1133.14 152.704C1132.22 151.792 1132.22 119.006 1132.22 111.682C1132.22 106.348 1132.58 102.566 1133.94 102.566C1134.57 102.566 1140.31 113.984 1141.29 115.784C1142.55 118.09 1144.31 125.242 1145.08 125.812C1145.85 126.381 1147.26 123.874 1147.26 123.874C1149.07 123.874 1148.27 125.812 1149.55 128.091C1151.16 130.939 1147.95 128.318 1147.26 127.065C1146.57 125.812 1144.16 129.458 1143.7 131.053C1143.33 132.329 1146.76 130.767 1147.26 132.079L1148.86 137.32C1148.63 138.836 1147.42 133.446 1145.99 133.446C1144.6 133.446 1143.43 135.611 1142.78 137.32C1142.22 138.803 1144.07 140.921 1145.08 140.739C1146.34 140.511 1147.14 144.157 1147.26 147.462C1147.37 150.767 1148.75 151.222 1150.24 152.134C1151.73 153.046 1153.8 153.843 1155.52 151.222C1157.24 148.601 1154.95 143.588 1153.8 141.878C1152.65 140.169 1154.26 131.281 1157.13 125.242C1159.42 120.41 1153.99 110.644 1151.5 105.528C1149.57 101.54 1146.39 94.9161 1145.08 91.2847C1143.72 87.5299 1140.53 83.1667 1138.19 83.4425C1136.83 83.6026 1128.74 85.3728 1124.42 85.5872C1123.65 85.2833 1122.38 85.4732 1123.39 88.6638C1124.65 92.6521 1142.78 88.6286 1142.78 86.9029C1142.78 85.3882 1143.2 78.5638 1144.04 75.1038C1144.9 71.5718 1149.69 66.1701 1149.32 63.253C1148.86 59.6066 1154.72 56.302 1160.34 53.9091C1165.96 51.5162 1166.7 51.4398 1170.67 47.5452C1174.77 43.5234 1174.46 29.8657 1174.8 28.3843C1175.14 26.903 1177.1 22.4589 1173.77 22.4589C1171.11 22.4589 1171.05 21.0915 1171.36 20.4078C1172.54 20.7497 1175.08 21.2283 1175.72 20.4078C1176.52 19.3823 1176.17 16.5308 1173.77 15.7359C1171.92 15.1236 1168.83 16.0558 1169.43 19.9029C1169.54 20.6698 1167.75 18.0031 1167.23 18.4707C1166.53 19.0922 1167.23 22.4589 1168.83 23.4845C1171.03 24.8874 1170.86 28.8401 1170.32 31.0052C1170.32 31.0052 1167.17 43.1978 1164.47 43.1978C1161.77 43.1978 1157.99 43.6031 1157.59 45.021C1156.58 48.5317 1156.44 49.503 1155.75 49.4651C1155.06 49.4271 1156.61 45.021 1154.72 45.021C1152.11 45.021 1146.99 44.3372 1145.08 44.3372C1144.01 44.3372 1141.63 48.2115 1138.99 49.4651C1137.03 50.3981 1133.09 49.0093 1131.53 49.4651C1129.58 50.0348 1133.02 52.5417 1135.44 52.5417C1137.51 52.5417 1142.09 50.8325 1142.78 49.4651C1143.47 48.0977 1142.78 46.0466 1140.6 46.0466C1138.42 46.0466 1140.6 39.3235 1142.78 37.7282C1144.53 36.452 1143.51 34.3097 1142.78 33.3981C1142.05 33.3981 1140.46 32.9195 1139.91 31.0052C1139.36 29.0908 1138.99 27.5867 1138.42 27.5867C1137.04 27.5867 1135.44 29.8657 1133.49 29.8657C1131.67 29.8657 1129.7 27.1697 1129.7 28.3843L1129.01 32.6005C1129.01 34.2465 1127.22 34.0879 1128.32 38.6398C1129.7 44.3372 1132.83 46.0466 1135.44 46.0466C1137.76 46.0466 1140.39 41.4886 1140.6 40.463C1142.78 39.8035 1143.33 38.1935 1143.58 37.7282C1146.43 32.6005 1146.23 30.5419 1143.58 26.2193C1140.89 21.8065 1136.52 22.4589 1133.49 23.4845C1132.31 23.4845 1132.69 23.4845 1131.53 23.4845C1128.26 23.4845 1127.63 21.6603 1127.63 22.4589V28.3843C1126.57 28.3843 1126.09 28.8401 1125.91 32.0307C1125.73 35.2213 1127.9 39.6654 1129.01 41.4886C1130.39 42.7957 1130.49 43.3542 1131.53 45.021C1132.64 46.7853 1129.7 47.4027 1128.32 46.0466C1126.78 44.5316 1122.83 41.1808 1120.63 40.463C1120.01 40.7534 1119.23 42.4685 1118.68 40.463C1117.99 37.9561 1113.27 33.5602 1111.45 31.0052C1109.58 28.3843 1112.12 27.5867 1112.48 26.2193C1113.02 24.1967 1111.45 14.1406 1112.48 13.5708C1113.52 13.0011 1119.37 9.01283 1119.37 7.75938C1119.37 6.50593 1116.5 7.98728 1115.24 9.01283C1112.94 8.21518 1116.5 5.59441 1117.53 3.99912C1118.57 2.40382 1117.53 1.15028 1116.5 1.49213C1115.47 1.83398 1110.65 5.02452 1109.73 6.50587C1108.81 7.98722 1110.07 12.6592 1109.04 14.9382C1108.21 16.7614 1106.52 18.6681 1106.06 21.4334C1105.59 24.1987 1106.06 28.3843 1106.06 31.0052C1106.06 35.3304 1110.3 44.3372 1111.45 45.021C1112.37 45.568 1114.89 44.0305 1116.5 44.3372C1115.28 46.0466 1110.73 47.3992 1112.48 48.2115C1115.18 49.4651 1118.82 56.5693 1119.68 58.1841C1120.52 59.7662 1121.99 63.5612 1121.31 65.6646C1120.62 67.7681 1116.52 80.0498 1115.29 83.4425C1114.06 86.8352 1118.51 86.1566 1118.51 86.9029C1115.57 90.7706 1117.89 101.31 1117.89 103.391C1117.89 105.336 1121.72 139.897 1122.2 144.85C1122.68 149.804 1121.45 154.689 1120.83 155.368C1120.22 156.046 1120.01 159.168 1123.22 159.439C1126.43 159.71 1126.76 160.346 1129.03 163.103C1131.3 165.85 1130.53 169.074 1129.85 171.381C1129.17 173.688 1127.39 172.535 1126.37 171.992C1125.34 171.449 1125.41 168.599 1125.48 166.971C1125.55 165.342 1124.86 163.985 1123.22 163.985C1121.91 163.985 1117.75 161.741 1115.84 160.62H1114.33L843.839 159.439L-1.63281 155.368" stroke="#AB0E0F"/>
<path d="M1162.32 161.584L1176.21 162.735C1178.04 162.965 1177.35 158.455 1175.53 156.982C1173.25 155.141 1172.95 152.064 1176.21 150.539C1179.17 149.159 1177.91 147.208 1178.95 142.486C1179.4 140.415 1183.05 138.344 1185.1 137.193C1181.45 135.353 1178.72 130.52 1177.35 126.839C1176.67 124.998 1177.34 125.092 1176.21 131.901C1175.76 134.662 1171.66 124.538 1173.48 121.776C1173.94 121.316 1177.81 122.111 1179.4 126.252C1180.54 128.324 1181.8 119.676 1175.53 113.597C1166.88 105.209 1183.05 134.202 1186.01 134.892C1188.97 135.583 1186.31 111.896 1181 110.962C1175.76 110.041 1167.2 110.579 1173.48 101.297C1174.55 99.7158 1176.65 97.9023 1177.58 95.7747C1179.22 92.0198 1178.47 86.3404 1175.3 90.022C1170.75 95.3145 1161.64 94.1639 1159.82 94.1639C1158 94.1639 1153.54 99.0287 1150.94 97.8455C1146.39 95.7747 1150.71 93.7037 1154.81 93.2435C1158.99 92.7742 1153.22 91.1726 1153.9 88.8716C1154.13 88.4114 1158 91.1726 1159.36 90.9424C1162.68 90.3837 1165.86 90.1928 1170.75 87.721C1173.94 86.1103 1170.29 85.42 1170.75 82.8888C1171.74 82.0451 1174.44 80.3576 1177.35 80.3576C1180.77 80.3576 1179.7 81.6694 1181 80.3576C1181.91 79.4373 1176.44 78.5169 1177.35 71.1535C1178.04 65.631 1179.86 66.3214 1181 65.631C1176.67 64.7107 1170.98 62.9158 1177.35 54.8161C1179.4 51.5947 1174.62 49.7539 1175.3 46.3023C1175.99 47.4529 1176.67 48.9417 1177.35 49.0635C1181.22 49.7539 1175.53 44.4613 1175.53 38.0189C1175.53 37.335 1175.53 36.6376 1176.67 35.9473C1177.58 37.0978 1178.31 40.67 1179.86 42.1601C1181.11 43.3728 1183.56 43.7322 1184.18 44.4614C1190.1 51.3642 1177.81 62.6393 1182.59 62.8694C1189.64 63.2087 1192.15 64.7102 1192.15 70.003C1192.15 73.2245 1192.38 73.6847 1191.7 72.3041C1191.02 70.9235 1190.1 64.9408 1188.06 67.0117C1186.01 69.0826 1183.5 72.7643 1183.05 72.3041C1182.59 71.8439 1178.49 72.5342 1181.91 77.1363C1184.64 80.8179 1187.75 81.4315 1188.97 81.2781C1190.1 80.3577 1192.15 78.305 1192.15 77.3664C1192.15 76.2154 1195.14 71.0466 1196.71 70.6934C1198.28 70.3401 1194.89 62.8694 1195.34 59.4183C1195.58 57.5932 1189.35 57.1551 1190.79 56.4269C1191.7 55.9663 1192.38 56.1964 1193.52 56.4269C1193.75 54.3556 1192.15 50.6743 1193.06 50.2141C1193.98 49.7539 1197.39 49.7539 1197.85 56.4269C1198.99 59.4183 1201.95 69.3127 1201.72 70.6934C1201.49 72.074 1198.53 77.1363 1196.94 78.747C1195.66 80.0355 1199.58 79.8971 1198.76 81.048C1197.39 82.9655 1194.57 86.9846 1194.2 87.721C1193.84 88.4574 1189.95 96.3116 1188.06 100.147C1187.49 101.297 1184.64 100.147 1183.05 98.766C1181.21 97.1741 1177.35 100.377 1182.14 101.527C1186.92 102.678 1203.77 102.677 1203.31 107.97C1203.15 109.818 1202.17 108.891 1201.26 108.891C1198.22 108.891 1195.11 115.333 1194.2 115.333C1193.48 115.333 1181 119.475 1182.14 121.316C1183.01 122.723 1188.74 117.503 1190.1 118.785C1193.29 121.776 1192.15 131.901 1192.15 131.901C1192.15 131.901 1193.52 136.503 1188.06 141.105C1182.59 145.707 1181.68 152.61 1181.22 154.451C1181.05 155.157 1177.58 159.283 1180.31 163.655C1182.5 167.153 1188.21 165.419 1190.79 164.115C1192.61 164.269 1196.75 165.128 1198.76 167.337C1200.76 169.546 1204.06 169.177 1205.69 168.717" stroke="#AB0E0F"/>
</svg>
